<?xml version="1.0" encoding="iso-8859-1"?>
<!-- Generator: Adobe Illustrator 19.1.0, SVG Export Plug-In . SVG Version: 6.00 Build 0)  -->
<svg version="1.1" id="Layer_1" xmlns="http://www.w3.org/2000/svg" xmlns:xlink="http://www.w3.org/1999/xlink" x="0px" y="0px"
	 viewBox="0 0 301 101" style="enable-background:new 0 0 301 101;" xml:space="preserve">
<symbol  id="New_Symbol" viewBox="-84.852 -76.388 169.703 152.777">
	<g>
		<defs>
			<path id="SVGID_1_" d="M1.392,71.298c-13.255-1.791-26.287-7.303-36.694-15.521c-11.574-9.14-19.032-20.838-21.568-33.831
				c-0.766-3.92-1.089-8.209-1.432-12.748c-1.335-17.7-3.19-28.447-17.652-28.447c-1.687,0-3.229-0.954-3.982-2.464
				c-0.752-1.51-0.586-3.315,0.43-4.663c19.548-25.936,53.095-28.936,76.628-28.936c0.599,0,1.194,0.002,1.78,0.006
				c0.434,0.003,0.881,0.003,1.34,0.003c0.674,0,1.372-0.001,2.095-0.004c0.781-0.002,1.589-0.005,2.42-0.005
				c10.994,0,22.594,0.532,32.942,4.391c18.378,6.854,33.864,22.26,39.451,39.25c6.307,19.175,3.378,38.582-8.248,54.645
				C55.97,60.841,33.767,71.939,10.957,71.939C7.766,71.939,4.547,71.723,1.392,71.298"/>
		</defs>
		<clipPath id="SVGID_2_">
			<use xlink:href="#SVGID_1_"  style="overflow:visible;"/>
		</clipPath>
		
			<radialGradient id="SVGID_3_" cx="7739.8433" cy="-8272.8379" r="1" gradientTransform="matrix(-0.7043 -119.4252 -162.7276 0.9597 -1340751.125 932318.6875)" gradientUnits="userSpaceOnUse">
			<stop  offset="0" style="stop-color:#F5F6F7"/>
			<stop  offset="0.0523" style="stop-color:#F5F6F7"/>
			<stop  offset="0.7359" style="stop-color:#CBD6DB"/>
			<stop  offset="1" style="stop-color:#EDEFF1"/>
		</radialGradient>
		<polygon style="clip-path:url(#SVGID_2_);fill:url(#SVGID_3_);" points="84.207,71.935 83.451,-56.28 -81.438,-55.307 
			-80.682,72.907 		"/>
	</g>
	<g>
		<path style="fill:#3D3D3D;" d="M10.957,67.491c40.09,0,75.775-35.793,61.967-77.772c-5.561-16.909-21.051-30.606-36.78-36.472
			c-10.258-3.825-22.242-4.11-31.387-4.11c-1.6,0-3.113,0.009-4.514,0.009c-0.469,0-0.924-0.001-1.367-0.004
			c-0.578-0.003-1.164-0.005-1.754-0.005c-22.98,0-54.714,2.804-73.076,27.165c25.16,0,20.196,28.119,23.45,44.792
			c4.96,25.412,30.1,42.5,54.491,45.794C4.987,67.294,7.987,67.491,10.957,67.491 M10.957,76.388c-3.391,0-6.809-0.229-10.161-0.682
			c-14.033-1.896-27.832-7.734-38.856-16.438c-12.42-9.808-20.435-22.419-23.177-36.47c-0.815-4.177-1.164-8.797-1.501-13.265
			c-0.528-6.995-1.074-14.227-3.298-18.953c-1.52-3.229-3.788-5.38-9.918-5.38c-3.374,0-6.458-1.909-7.963-4.928
			c-1.506-3.019-1.173-6.631,0.857-9.325C-62.314-56.577-27.363-59.76-2.877-59.76c0.606,0,1.21,0.001,1.805,0.005
			c0.426,0.002,0.864,0.003,1.315,0.003c0.669,0,1.364-0.002,2.082-0.004c0.785-0.002,1.597-0.004,2.432-0.004
			c11.41,0,23.487,0.566,34.495,4.67c9.172,3.421,17.906,8.958,25.256,16.013c7.946,7.626,13.779,16.623,16.868,26.016
			C84.855-2.486,85.727,8.142,83.97,18.53c-1.643,9.71-5.5,18.811-11.464,27.052c-6.736,9.306-15.951,17.077-26.649,22.472
			C35.045,73.506,22.977,76.388,10.957,76.388"/>
		<path style="fill:#3D3D3D;" d="M-0.487,23.169c0-4.719-3.825-8.545-8.544-8.545c-4.718,0-8.544,3.826-8.544,8.545
			c0,4.719,3.826,8.543,8.544,8.543C-4.312,31.712-0.487,27.888-0.487,23.169"/>
		<path style="fill:#3D3D3D;" d="M39.429,23.169c0-4.719-3.825-8.545-8.544-8.545c-4.718,0-8.544,3.826-8.544,8.545
			c0,4.719,3.826,8.543,8.544,8.543C35.604,31.712,39.429,27.888,39.429,23.169"/>
		<path style="fill:#3D3D3D;" d="M10.621-22.646c-14.477,0-27.519,9.491-29.911,21.916c-0.464,2.412,1.116,4.745,3.528,5.209
			c2.413,0.465,4.745-1.116,5.209-3.528c1.406-7.304,10.152-14.996,21.81-14.691C23.4-13.421,31.422-6.159,33.071,0.848
			c0.563,2.391,2.96,3.872,5.349,3.312c2.392-0.563,3.875-2.958,3.312-5.35c-1.345-5.719-5.03-11.02-10.375-14.926
			c-5.567-4.069-12.437-6.323-19.866-6.518C11.201-22.642,10.91-22.646,10.621-22.646"/>
		<path style="fill:#3D3D3D;" d="M-49.98-58.746c0,9.744,7.899,17.642,17.642,17.642c9.744,0,17.643-7.898,17.643-17.642
			s-7.899-17.642-17.643-17.642C-42.081-76.388-49.98-68.49-49.98-58.746"/>
		<path style="fill:#515252;" d="M-38.16-58.746c0,3.216,2.607,5.822,5.822,5.822c3.216,0,5.823-2.606,5.823-5.822
			c0-3.216-2.607-5.822-5.823-5.822C-35.553-64.568-38.16-61.962-38.16-58.746"/>
		<path style="fill:#3D3D3D;" d="M11.255-58.746c0,9.744,7.899,17.642,17.642,17.642c9.744,0,17.643-7.898,17.643-17.642
			s-7.899-17.642-17.643-17.642C19.154-76.388,11.255-68.49,11.255-58.746"/>
		<path style="fill:#515252;" d="M23.075-58.746c0,3.216,2.607,5.822,5.822,5.822c3.216,0,5.823-2.606,5.823-5.822
			c0-3.216-2.607-5.822-5.823-5.822C25.682-64.568,23.075-61.962,23.075-58.746"/>
	</g>
</symbol>
<g>
	<rect x="0.5" y="0.5" style="fill:none;" width="100" height="100"/>
	<rect x="100.5" y="0.5" style="fill:none;" width="100" height="100"/>
	<rect x="200.5" y="0.5" style="fill:none;" width="100" height="100"/>
	<g>
		<path style="fill-rule:evenodd;clip-rule:evenodd;fill:#E3DCCC;" d="M74.896,44.694c-5.295-1.808-10.59-3.617-15.885-5.426
			c-1.33,12.799-1.674,25.561,0,38.244c5.295,1.809,10.59,3.617,15.885,5.426C74.896,70.19,74.896,57.442,74.896,44.694
			L74.896,44.694z"/>
		<path style="fill-rule:evenodd;clip-rule:evenodd;fill:#E3DCCC;" d="M41.989,45.083c-5.295-1.811-10.591-3.62-15.887-5.431
			c0,12.748,0,25.494,0,38.244c5.296,1.81,10.591,3.62,15.887,5.43C43.976,70.528,43.976,57.781,41.989,45.083L41.989,45.083z"/>
		<polygon style="fill-rule:evenodd;clip-rule:evenodd;fill:#C1BBAE;" points="59.011,39.268 41.989,45.083 41.989,83.326 
			59.011,77.534 59.011,39.268 		"/>
		<path style="fill-rule:evenodd;clip-rule:evenodd;fill:#79CF73;" d="M59.011,55.704c5.31,4.281,10.62,8.561,15.93,12.841
			c-0.015,4.798-0.03,9.596-0.045,14.392c-5.295-1.809-10.59-3.618-15.885-5.426C57.746,70.188,57.62,62.913,59.011,55.704
			L59.011,55.704z"/>
		<path style="fill-rule:evenodd;clip-rule:evenodd;fill:#79CF73;" d="M31.605,79.776c2.802-3.592,5.603-7.183,8.405-10.776
			c0.659-0.287,1.319-0.574,1.979-0.861c1.894,4.998,1.57,10.073,0,15.186C38.527,82.143,35.066,80.959,31.605,79.776L31.605,79.776
			z"/>
		<polygon style="fill-rule:evenodd;clip-rule:evenodd;fill:#53A94D;" points="41.989,68.139 53.698,55.066 59.011,55.727 
			59.011,77.512 41.989,83.325 41.989,68.139 		"/>
		<path style="fill:#F2F2F2;" d="M73.761,45.442c-0.144-0.048-0.287-0.098-0.431-0.147c-4.774,2.073-9.547,4.145-14.319,6.218
			c-0.706-1.379-0.623-2.996,0-4.779c2.719-1.181,5.439-2.363,8.159-3.544c-2.719-0.928-5.44-1.858-8.159-2.786
			c-0.289-0.729-0.289-1.486,0-2.271c5.674,1.938,11.347,3.876,17.021,5.814c0,13.504,0,27.01,0,40.514
			c-5.674-1.938-11.347-3.876-17.021-5.814c0-0.757,0-1.514,0-2.271c4.916,1.679,9.834,3.359,14.75,5.039c0-4.124,0-8.248,0-12.37
			c-4.916-3.962-9.834-7.924-14.75-11.886c-0.78-0.904-0.607-1.889,0-2.909c4.916,3.96,9.834,7.922,14.75,11.884
			C73.761,59.236,73.761,52.339,73.761,45.442L73.761,45.442z"/>
		<path style="fill:#F2F2F2;" d="M41.989,43.947c0,0.757,0,1.513,0,2.271c-4.917-1.681-9.834-3.361-14.751-5.042
			c0,2.632,0,5.264,0,7.897c4.174,5.882,8.348,11.764,12.522,17.646c0.743-0.323,1.487-0.645,2.23-0.968
			c0.677,1.176,0.561,2.841,0,4.781c-0.186,0.079-0.371,0.161-0.557,0.241c-2.304,2.955-4.609,5.91-6.914,8.865
			c2.49,0.85,4.981,1.702,7.471,2.553c0,0.757,0,1.514,0,2.271c-5.674-1.939-11.348-3.878-17.022-5.818c0-13.503,0-27.01,0-40.514
			C30.641,40.068,36.315,42.008,41.989,43.947L41.989,43.947z M27.238,52.923c0,8.074,0,16.151,0,24.225
			c0.951,0.325,1.902,0.651,2.853,0.976c2.622-3.363,5.245-6.727,7.868-10.089C34.386,62.996,30.812,57.96,27.238,52.923
			L27.238,52.923z"/>
		<path style="fill:#CCCCCC;" d="M59.011,51.534l-2.207,2.463l2.207,0.273v2.91l-4.554-0.564L41.989,70.532v-4.781l17.022-18.996
			V51.534L59.011,51.534z M59.011,38.132v2.271l-17.022,5.815v-2.271L59.011,38.132L59.011,38.132z M59.011,76.376v2.271
			l-17.022,5.814V82.19L59.011,76.376L59.011,76.376z"/>
		<g>
			<path style="fill-rule:evenodd;clip-rule:evenodd;fill:#E74C3C;" d="M38.099,28.251c0-6.468,5.246-11.712,11.713-11.712
				c6.468,0,11.713,5.244,11.713,11.712c0,2.307-0.78,5.252-1.664,7.31c-3.35,7.785-6.7,15.574-10.049,23.363
				c-3.35-7.79-6.704-15.581-10.053-23.371C38.875,33.498,38.099,30.556,38.099,28.251L38.099,28.251z M49.812,35.007
				c-3.73,0-6.754-3.025-6.754-6.756c0-3.73,3.024-6.754,6.754-6.754c3.731,0,6.756,3.024,6.756,6.754
				C56.568,31.982,53.543,35.007,49.812,35.007L49.812,35.007z"/>
			<path style="fill-rule:evenodd;clip-rule:evenodd;fill:#F26757;" d="M49.813,16.539c6.468,0,11.713,5.245,11.713,11.712
				c0,2.308-0.779,5.252-1.664,7.31c-3.351,7.785-6.701,15.574-10.049,23.363V35.007c3.73,0,6.755-3.025,6.755-6.756
				c0-3.73-3.025-6.754-6.755-6.754V16.539L49.813,16.539z"/>
		</g>
	</g>
	<g>
		<g>
			<g>
				<line style="fill:none;stroke:#34495E;stroke-miterlimit:10;" x1="159.306" y1="42.938" x2="170.764" y2="26.493"/>
				<g>
					<circle style="fill:#34495E;" cx="170.657" cy="26.647" r="3.76"/>
				</g>
			</g>
		</g>
		<g>
			<g>
				<polyline style="fill:none;stroke:#34495E;stroke-miterlimit:10;" points="154.898,62.232 170.806,64.313 174.926,74.143 				
					"/>
				<g>
					<circle style="fill:#34495E;" cx="174.853" cy="73.97" r="3.76"/>
				</g>
			</g>
		</g>
		<g>
			<g>
				<polyline style="fill:none;stroke:#34495E;stroke-miterlimit:10;" points="170.806,64.313 175.759,50.939 173.531,40.185 				
					"/>
				<g>
					<circle style="fill:#34495E;" cx="173.569" cy="40.369" r="3.76"/>
				</g>
			</g>
		</g>
		<g>
			<g>
				<polyline style="fill:none;stroke:#34495E;stroke-miterlimit:10;" points="134.96,61.89 129.504,71.007 140.436,74.767 				"/>
				<g>
					<circle style="fill:#34495E;" cx="140.258" cy="74.706" r="3.76"/>
				</g>
			</g>
		</g>
		<g>
			<g>
				<line style="fill:none;stroke:#34495E;stroke-miterlimit:10;" x1="132.806" y1="50.939" x2="126.223" y2="37.04"/>
				<g>
					<circle style="fill:#34495E;" cx="126.303" cy="37.21" r="3.76"/>
				</g>
			</g>
		</g>
		<g>
			<g>
				<polyline style="fill:none;stroke:#34495E;stroke-miterlimit:10;" points="149.911,36.125 147.306,27 132.929,27 				"/>
				<g>
					<circle style="fill:#34495E;" cx="133.424" cy="27.312" r="3.76"/>
				</g>
			</g>
		</g>
		<path style="fill:#3D5A98;" d="M149.664,31.309c-11.046,0-20,8.954-20,20c0,11.046,8.954,20,20,20c11.046,0,20-8.954,20-20
			C169.664,40.263,160.709,31.309,149.664,31.309z M154.983,50.977h-3.378c0,5.4,0,12.05,0,12.05h-5.01c0,0,0-6.585,0-12.05h-2.381
			v-4.256h2.381v-2.755c0-1.972,0.938-5.054,5.055-5.054l3.708,0.015v4.131c0,0-2.254,0-2.692,0c-0.44,0-1.062,0.22-1.062,1.158
			v2.505h3.816L154.983,50.977z"/>
	</g>
	
		<use xlink:href="#New_Symbol"  width="169.703" height="152.777" x="-84.852" y="-76.388" transform="matrix(0.3536 0 0 -0.3536 250.5 50.5)" style="overflow:visible;"/>
</g>
</svg>
