<?xml version="1.0" encoding="iso-8859-1"?>
<!-- Generator: Adobe Illustrator 19.1.0, SVG Export Plug-In . SVG Version: 6.00 Build 0)  -->
<svg version="1.1" id="Layer_1" xmlns="http://www.w3.org/2000/svg" xmlns:xlink="http://www.w3.org/1999/xlink" x="0px" y="0px"
	 viewBox="0 0 556.263 129.457" style="enable-background:new 0 0 556.263 129.457;" xml:space="preserve">
<g>
	<path style="fill:#FFFFFF;" d="M152.751,9.27c0,0.962-0.481,1.442-1.442,1.442h-31.106c-2.884,0-5.34,0.584-7.364,1.751
		c-2.026,1.168-3.486,2.198-4.377,3.09c-2.542,2.404-3.811,5.631-3.811,9.682v44.084c0,0.962-0.481,1.441-1.442,1.441h-8.755
		c-0.962,0-1.442-0.479-1.442-1.441V25.235c0-3.708,0.634-7.107,1.905-10.197c1.27-3.09,3.175-5.768,5.717-8.034
		c4.875-4.532,11.33-6.866,19.364-7.004h0.103h31.209c0.961,0,1.442,0.447,1.442,1.339V9.27z M152.648,39.655
		c0,0.962-0.481,1.442-1.442,1.442h-38.522c-0.962,0-1.442-0.479-1.442-1.442v-7.931c0-0.96,0.479-1.442,1.442-1.442h38.522
		c0.961,0,1.442,0.481,1.442,1.442V39.655z"/>
	<path style="fill:#FFFFFF;" d="M223.203,35.226c0,4.944-0.808,9.597-2.42,13.957c-1.614,4.362-3.829,8.155-6.644,11.382
		c-2.816,3.228-6.112,5.785-9.888,7.673c-3.777,1.89-7.828,2.833-12.154,2.833h-2.472c-0.206,0-0.309-0.036-0.309-0.104
		c-4.189,0-8.085-0.634-11.69-1.905c-3.605-1.27-6.782-3.106-9.527-5.511c-3.022-2.539-5.305-5.578-6.85-9.116
		c-1.545-3.536-2.317-7.364-2.317-11.484V1.854c0-0.961,0.479-1.442,1.442-1.442h8.755c0.961,0,1.442,0.481,1.442,1.442v41.097
		c0,5.013,1.715,8.961,5.15,11.845c1.991,1.717,4.188,3.022,6.592,3.914c2.403,0.894,4.806,1.374,7.21,1.442h0.927
		c3.775,0.138,6.986-0.635,9.63-2.318c2.643-1.682,4.823-3.793,6.541-6.334c1.716-2.54,2.969-5.27,3.76-8.188
		c0.789-2.918,1.184-5.614,1.184-8.086c0-3.296-0.499-6.386-1.493-9.27c-0.997-2.884-2.49-5.423-4.48-7.622
		c-0.618-0.686-1.375-1.458-2.266-2.318c-0.893-0.857-1.923-1.664-3.09-2.42c-1.168-0.755-2.438-1.391-3.811-1.905
		c-1.375-0.515-2.816-0.772-4.326-0.772h-13.699c-0.412,0-0.756-0.155-1.03-0.464c-0.275-0.309-0.412-0.634-0.412-0.979V1.545
		c0-0.892,0.479-1.339,1.442-1.339h13.699c4.257,0,8.292,0.894,12.103,2.678c3.811,1.787,7.192,4.361,10.146,7.725
		c2.884,3.296,5.081,7.055,6.592,11.278C222.447,26.11,223.203,30.557,223.203,35.226z"/>
	<path style="fill:#FFFFFF;" d="M259.354,35.123c-0.068,4.189-0.652,8.07-1.75,11.639c-1.1,3.571-2.713,6.661-4.842,9.27
		c-1.646,1.993-3.191,3.847-4.635,5.562c-1.441,1.718-2.713,3.263-3.811,4.636c-1.236,1.58-2.369,3.021-3.399,4.325
		c-0.275,0.275-0.584,0.412-0.927,0.412l-11.536-0.103c-0.48,0-0.858-0.273-1.133-0.824c-0.137-0.412-0.137-0.755,0-1.03
		c0.139-0.273,0.344-0.582,0.618-0.927l1.133-1.339l3.811-4.841c1.373-1.785,3.021-3.862,4.944-6.232
		c1.922-2.369,3.879-4.72,5.871-7.056c1.373-1.648,2.385-3.672,3.038-6.077c0.652-2.402,0.979-4.892,0.979-7.467
		s-0.309-5.063-0.926-7.467c-0.619-2.403-1.478-4.429-2.576-6.077c-0.618-0.961-1.442-2.163-2.472-3.605
		c-1.03-1.442-2.129-2.952-3.296-4.532l-2.06-2.781c-1.099-1.442-2.214-2.952-3.347-4.532c-1.133-1.579-1.975-2.746-2.524-3.502
		c-0.275-0.479-0.309-0.995-0.103-1.545c0.206-0.479,0.618-0.721,1.236-0.721h10.815c0.549,0,0.927,0.206,1.133,0.618
		c0.412,0.55,0.772,1.014,1.082,1.391c0.309,0.378,0.634,0.808,0.979,1.288c0.273,0.412,0.583,0.841,0.927,1.287
		c0.344,0.448,0.756,0.979,1.236,1.597c1.236,1.717,2.385,3.314,3.451,4.79c1.063,1.478,1.939,2.729,2.625,3.759
		c1.785,2.542,3.143,5.562,4.068,9.064C258.892,27.604,259.354,31.278,259.354,35.123z M297.157,70.04
		c-0.275,0.551-0.654,0.824-1.135,0.824l-11.535,0.103c-0.344,0-0.654-0.137-0.928-0.412c-1.098-1.304-2.266-2.745-3.502-4.325
		c-1.098-1.373-2.352-2.918-3.76-4.636c-1.408-1.715-2.934-3.569-4.582-5.562c-2.129-2.609-3.744-5.699-4.842-9.27
		c-1.1-3.569-1.684-7.45-1.75-11.639c0-3.845,0.463-7.519,1.391-11.021c0.926-3.502,2.281-6.522,4.068-9.064
		c0.686-1.03,1.561-2.282,2.625-3.759c1.064-1.476,2.215-3.072,3.451-4.79l2.164-2.884c0.342-0.48,0.668-0.91,0.979-1.288
		c0.309-0.376,0.633-0.84,0.979-1.391c0.273-0.412,0.686-0.618,1.234-0.618h10.816c0.549,0,0.961,0.242,1.234,0.721
		c0.207,0.55,0.172,1.065-0.102,1.545c-0.551,0.756-1.391,1.923-2.523,3.502c-1.133,1.581-2.25,3.09-3.348,4.532l-2.061,2.781
		c-1.168,1.581-2.266,3.09-3.297,4.532c-1.029,1.442-1.854,2.644-2.471,3.605c-1.1,1.648-1.957,3.674-2.576,6.077
		c-0.617,2.404-0.926,4.892-0.926,7.467s0.324,5.065,0.979,7.467c0.652,2.405,1.664,4.429,3.039,6.077
		c1.99,2.335,3.947,4.687,5.869,7.056c1.922,2.37,3.57,4.447,4.945,6.232l3.811,4.841l1.133,1.339
		c0.273,0.345,0.48,0.653,0.619,0.927C297.294,69.285,297.294,69.628,297.157,70.04z"/>
	<path style="fill:#FFFFFF;" d="M347.832,58.916c0.068,0.275-0.035,0.618-0.309,1.03c-0.345,0.344-0.721,0.515-1.133,0.515h-9.477
		c-0.893,0-1.339-0.445-1.339-1.339c-0.412-4.326-0.79-8.12-1.133-11.382c-0.345-3.261-0.653-6.111-0.927-8.549
		c-0.275-2.437-0.499-4.497-0.67-6.18c-0.172-1.682-0.293-3.072-0.36-4.171l-0.412-4.326c-0.345-3.021-0.859-5.423-1.545-7.21
		c-0.688-1.785-1.493-3.158-2.421-4.12c-0.927-0.96-1.905-1.579-2.935-1.854c-1.03-0.273-2.061-0.412-3.091-0.412
		c-2.266,0-4.052,0.653-5.355,1.957c-2.541,2.472-3.812,7.004-3.812,13.596v42.951c0,0.963-0.48,1.442-1.441,1.442h-8.755
		c-0.963,0-1.442-0.479-1.442-1.442V26.471c0-7.828,1.545-13.973,4.635-18.437C309.619,2.678,315.009,0,322.082,0
		c3.296,0,6.351,0.687,9.167,2.06c2.815,1.375,5.185,3.262,7.107,5.665l0.103,0.206c2.952,3.777,4.806,9.03,5.563,15.759
		L347.832,58.916z M381.72,69.422c0,0.963-0.481,1.442-1.442,1.442h-8.755c-0.963,0-1.442-0.479-1.442-1.442V26.471
		c0-1.785-0.12-3.621-0.36-5.51c-0.241-1.888-0.705-3.587-1.391-5.099c-0.687-1.51-1.632-2.746-2.832-3.708
		c-1.202-0.961-2.729-1.442-4.584-1.442c-1.099,0-2.369,0.378-3.811,1.133c-1.442,0.756-2.747,1.923-3.914,3.502
		c-0.618,0.756-1.271,0.824-1.957,0.206l-7.107-5.253c-0.344-0.206-0.515-0.515-0.515-0.927c-0.139-0.412-0.035-0.789,0.309-1.133
		c1.991-2.609,4.445-4.635,7.365-6.077C354.2,0.721,357.411,0,360.913,0c7.004,0,12.395,2.678,16.171,8.034
		c3.091,4.464,4.636,10.609,4.636,18.437V69.422z"/>
	<path style="fill:#FFFFFF;" d="M454.849,56.856c0,0.481-0.104,0.859-0.31,1.133c-1.717,2.335-3.537,4.31-5.459,5.922
		c-1.923,1.614-3.982,2.972-6.18,4.069c-2.06,0.962-4.274,1.683-6.644,2.162c-2.369,0.481-4.995,0.688-7.88,0.618l-13.492-0.103
		c-8.034-0.137-14.489-2.472-19.364-7.004c-2.541-2.267-4.446-4.944-5.717-8.035c-1.271-3.09-1.905-6.489-1.905-10.197V25.235
		c0-3.708,0.634-7.107,1.905-10.197c1.271-3.09,3.176-5.768,5.717-8.034c4.875-4.532,11.33-6.866,19.364-7.004h0.103h31.209
		c0.961,0,1.442,0.447,1.442,1.339v7.725c0,0.344-0.139,0.669-0.412,0.979c-0.275,0.309-0.618,0.463-1.03,0.463h-31.105
		c-1.375,0-2.662,0.172-3.863,0.515c-1.202,0.344-2.301,0.772-3.296,1.287c-0.996,0.515-1.889,1.065-2.678,1.648
		c-0.79,0.584-1.426,1.117-1.905,1.597c-2.541,2.404-3.812,5.631-3.812,9.682v20.188c0,4.052,1.271,7.279,3.812,9.682
		c0.961,0.893,2.437,1.905,4.429,3.039c1.991,1.133,4.429,1.735,7.313,1.803h1.647c0.824,0,2.146,0.018,3.966,0.051
		c1.818,0.036,4.377,0.052,7.673,0.052c3.64,0,6.747-0.686,9.322-2.06c2.575-1.373,5.063-3.672,7.467-6.901
		c0.206-0.343,0.498-0.549,0.876-0.618c0.377-0.067,0.737,0.036,1.081,0.309l7.107,5.15
		C454.504,56.135,454.71,56.444,454.849,56.856z M447.535,39.758c0,0.893-0.48,1.339-1.441,1.339h-38.522
		c-0.962,0-1.441-0.446-1.441-1.339v-7.931c0-0.96,0.479-1.442,1.441-1.442h38.522c0.961,0,1.441,0.481,1.441,1.442V39.758z"/>
	<path style="fill:#FFFFFF;" d="M528.286,35.226c0,4.602-0.738,9.013-2.214,13.236c-1.478,4.223-3.623,7.982-6.438,11.279
		c-2.954,3.502-6.335,6.164-10.146,7.982c-3.812,1.82-7.846,2.729-12.103,2.729h-17.099c-0.962,0-1.441-0.479-1.441-1.442v-7.828
		c0-0.892,0.479-1.339,1.441-1.339h17.099c2.539,0,4.978-0.634,7.313-1.905c2.334-1.27,4.394-3.072,6.18-5.408
		c1.854-2.403,3.278-5.099,4.275-8.085c0.994-2.987,1.493-6.06,1.493-9.219c0-3.296-0.515-6.438-1.545-9.424
		s-2.421-5.578-4.172-7.776c-1.751-2.197-3.795-3.948-6.128-5.253c-2.336-1.304-4.808-1.957-7.416-1.957h-9.167
		c-2.953,0-5.408,0.584-7.365,1.751c-1.957,1.168-3.416,2.163-4.377,2.987c-2.541,2.404-3.812,5.631-3.812,9.682v43.878
		c0,0.962-0.48,1.441-1.441,1.441h-8.755c-0.963,0-1.442-0.479-1.442-1.441V25.235c0-3.708,0.634-7.107,1.905-10.197
		c1.271-3.09,3.176-5.768,5.717-8.034c4.875-4.532,11.33-6.866,19.364-7.004h0.103h9.271c4.257,0,8.291,0.893,12.103,2.678
		c3.811,1.787,7.191,4.429,10.146,7.931c2.814,3.296,4.96,7.055,6.438,11.278C527.548,26.11,528.286,30.557,528.286,35.226z"/>
	<polyline style="fill:#FFFFFF;" points="75,74.01 0,74.01 0,1.01 75,1.01 75,74.01 	"/>
	<path style="fill:#D1D1D1;" d="M75,21.444v30.155l0.113-0.123c-0.185-1.266,0.052-2.44,0.093-3.756
		c0.012-0.396,0.014-0.792,0.017-1.188c-0.005-0.196-0.017-0.39-0.017-0.586c0-0.155,0.01-0.308,0.013-0.463
		c-0.04-3.464-0.334-6.917-0.118-10.388c0.021-0.337,0.035-0.674,0.052-1.012c-0.031-0.494-0.052-0.991-0.052-1.492
		c0-0.909,0.055-1.806,0.157-2.692c0.011-2.043-0.022-4.087-0.041-6.132c-0.07-0.738-0.116-1.482-0.116-2.236l0.002-0.06L75,21.444"
		/>
	<path style="fill:#D1D1D1;" d="M63.716,19.985c-11.805,0-23.578,4.703-32.272,14.011c-10.368,11.1-14.008,26-10.899,39.778h0.225
		c1.042,0,3.072,0.02,3.072,0.02h2.113h0.812h2.054l13.508-0.01h3.375l0.012,0c0.143,0,0.306,0.04,0.448,0.04
		c0.616,0,1.174,0.022,1.78,0.068c0.187-0.014,0.374-0.019,0.562-0.019c0.415,0,0.832,0.024,1.254,0.024
		c0.546,0,1.085,0.024,1.624,0.061c0.982-0.156,1.995-0.232,3.021-0.232c0.117,0,0.235,0.001,0.352,0.003L75,51.599V21.444
		C71.303,20.47,67.508,19.985,63.716,19.985"/>
	<path style="fill-rule:evenodd;clip-rule:evenodd;fill:#1680BA;" d="M53.26,86.957c-1.438-8.966-6.82-11.414-10.064-15.684
		c-7.09-9.352-3.983-23.198,5.853-29.334c5.97-3.711,15.304-4.232,21.76-1.483c11.655,4.964,16.236,19.935,9.016,30.181
		c-3.088,4.385-8.391,7.011-9.509,16.02L53.26,86.957z"/>
	<path style="fill:#FFFFFF;" d="M53.26,86.957l0.987-0.158c-0.74-4.662-2.565-7.737-4.581-10.093
		c-2.018-2.358-4.167-4.039-5.675-6.037c-2.49-3.286-3.653-7.153-3.654-11.039c-0.003-6.588,3.366-13.183,9.24-16.842l-0.001,0.001
		c3.236-2.018,7.648-3.075,11.977-3.072c3.168-0.001,6.288,0.561,8.863,1.659c7.442,3.161,11.873,10.668,11.87,18.196
		c-0.001,3.661-1.042,7.312-3.28,10.489c-1.434,2.051-3.523,3.805-5.459,6.23c-1.934,2.423-3.651,5.558-4.225,10.243l0.992,0.123
		l-0.018-1l-17.055,0.299L53.26,86.957l0.987-0.158L53.26,86.957l0.018,1L71.2,87.642l0.107-0.861
		c0.544-4.324,2.037-7.007,3.806-9.246c1.767-2.236,3.874-3.988,5.528-6.322c2.489-3.531,3.646-7.602,3.645-11.641
		c-0.002-8.293-4.849-16.52-13.087-20.036c-2.881-1.225-6.245-1.818-9.646-1.819c-4.648,0.004-9.375,1.105-13.033,3.373
		l-0.001,0.001C42.02,45.151,38.34,52.372,38.338,59.63c-0.001,4.283,1.29,8.594,4.061,12.248c1.737,2.272,3.902,3.95,5.745,6.125
		c1.845,2.177,3.431,4.809,4.129,9.113l0.137,0.857l0.868-0.015L53.26,86.957z"/>
	<path style="fill-rule:evenodd;clip-rule:evenodd;fill:#FFFFFF;" d="M57.117,99.625l9.453-0.116
		c0.844-0.011,1.538,0.662,1.543,1.502c0.014,0.839-0.66,1.534-1.499,1.544l-9.456,0.124c-0.84,0.01-1.534-0.668-1.539-1.508
		C55.605,100.329,56.279,99.638,57.117,99.625z"/>
	<path style="fill-rule:evenodd;clip-rule:evenodd;fill:#FFFFFF;" d="M55.922,94.623l11.792-0.15
		c1.047-0.016,1.911,0.833,1.927,1.875c0.008,1.041-0.832,1.915-1.878,1.926l-11.793,0.15c-1.046,0.013-1.91-0.832-1.922-1.876
		C54.026,95.502,54.87,94.636,55.922,94.623z"/>
	<path style="fill-rule:evenodd;clip-rule:evenodd;fill:#FFFFFF;" d="M54.56,88.777l14.447-0.185
		c1.28-0.019,2.344,1.019,2.358,2.294l0.001,0.005c0.014,1.281-1.019,2.343-2.303,2.364l-14.447,0.183
		c-1.28,0.02-2.343-1.013-2.36-2.304C52.243,89.859,53.275,88.795,54.56,88.777z"/>
	<path style="fill-rule:evenodd;clip-rule:evenodd;fill:#FFFFFF;" d="M43.648,57.812c-0.002,0.888,0.726,1.612,1.62,1.614
		c0.897-0.004,1.621-0.737,1.612-1.629c-0.012-3.007,1.197-5.731,3.15-7.699c1.97-1.975,4.681-3.213,7.682-3.225
		c0.893-0.003,1.618-0.727,1.614-1.619c-0.003-0.892-0.73-1.611-1.623-1.608c-3.894,0.016-7.418,1.605-9.959,4.172l0.001,0.005
		C45.204,50.39,43.629,53.926,43.648,57.812z"/>
	<path style="fill:#FFFFFF;" d="M90.838,77.817c2.152-0.257,4.455-0.513,7.061-0.513c8.951,0,14.842,3.712,14.842,11.68
		c0,11.583-10.838,12.831-15.785,12.831c-2.002,0-4.004,0-6.117-0.16V77.817z M92.158,100.663c1.246,0.192,2.834,0.256,4.797,0.256
		c9.668,0,14.389-4.735,14.389-11.871c0-6.655-4.344-10.814-13.672-10.814c-2.34,0-4.191,0.224-5.514,0.447V100.663z"/>
	<path style="fill:#FFFFFF;" d="M118.666,80.856c-0.793,0-1.32-0.607-1.32-1.279s0.566-1.28,1.359-1.28s1.32,0.576,1.32,1.28
		C120.025,80.345,119.459,80.856,118.666,80.856z M119.346,101.655h-1.32v-17.15h1.32V101.655z"/>
	<path style="fill:#FFFFFF;" d="M142.344,84.505c-0.113,1.312-0.15,2.655-0.15,4.319v10.304c0,4.575-1.172,6.688-2.758,7.999
		c-1.85,1.472-4.418,2.016-6.609,2.016c-1.813,0-4.795-0.64-6.307-1.536l0.643-0.863c1.623,0.928,3.852,1.472,5.891,1.472
		c4.91,0,7.818-2.784,7.818-7.615v-2.496h-0.113c-1.02,1.792-3.438,3.647-7.252,3.647c-5.135,0-8.723-3.871-8.723-8.479
		c0-6.175,4.645-9.151,9.063-9.151c4.193,0,6.309,2.017,7.063,3.456h0.076l0.113-3.071H142.344z M140.871,91.032
		c0-0.704-0.037-1.248-0.227-1.729c-0.906-2.176-3.098-4.255-6.646-4.255c-4.834,0-7.855,3.84-7.855,7.999
		c0,4.576,3.209,7.775,7.703,7.775c4.041,0,7.025-3.264,7.025-6.239V91.032z"/>
	<path style="fill:#FFFFFF;" d="M150.08,80.856c-0.793,0-1.32-0.607-1.32-1.279s0.566-1.28,1.359-1.28s1.32,0.576,1.32,1.28
		C151.439,80.345,150.873,80.856,150.08,80.856z M150.76,101.655h-1.32v-17.15h1.32V101.655z"/>
	<path style="fill:#FFFFFF;" d="M158.766,81.369l1.322-0.513v3.648h5.967v0.991h-5.967v11.808c0,2.176,0.982,3.775,3.172,3.775
		c1.059,0,1.738-0.16,2.229-0.319l0.303,0.831c-0.643,0.225-1.436,0.416-2.605,0.416c-4.117,0-4.42-3.071-4.42-5.087V85.496h-3.512
		v-0.991h3.512V81.369z"/>
	<path style="fill:#FFFFFF;" d="M182.744,97.592c0,1.344,0.039,2.688,0.303,4.063h-1.246l-0.303-2.592h-0.074
		c-0.945,1.312-3.211,2.976-6.533,2.976c-4.08,0-5.855-2.399-5.855-4.607c0-3.872,4.004-6.304,12.389-6.208
		c0-1.951,0-6.144-5.439-6.144c-1.699,0-3.512,0.48-4.984,1.376l-0.529-0.832c1.889-1.119,4.078-1.504,5.627-1.504
		c5.703,0,6.646,3.776,6.646,6.688V97.592z M181.385,92.216c-3.928-0.063-10.988,0.448-10.988,5.023
		c0,2.656,2.189,3.872,4.418,3.872c4.797,0,6.57-3.359,6.57-4.768V92.216z"/>
	<rect x="189.768" y="76.217" style="fill:#FFFFFF;" width="1.32" height="25.438"/>
	<path style="fill:#FFFFFF;" d="M233.344,101.655h-1.322l-0.869-11.775c-0.34-4.224-0.68-8.415-0.641-10.815h-0.113
		c-1.059,2.528-2.191,5.216-3.928,8.928l-6.383,13.728h-0.869l-6.004-13.376c-1.738-3.936-2.947-6.688-3.814-9.279h-0.113
		c-0.076,2.784-0.303,7.008-0.68,11.168l-0.945,11.423h-1.359l2.078-24.158h1.396l6.646,14.814c1.359,3.136,2.379,5.44,3.248,7.68
		h0.076c0.754-2.144,1.775-4.224,3.285-7.552l6.873-14.942h1.512L233.344,101.655z"/>
	<path style="fill:#FFFFFF;" d="M253.432,100.855c-0.568,0.288-2.607,1.151-6.27,1.151c-5.666,0-9.215-3.615-9.215-8.607
		c0-5.951,3.965-9.279,8.912-9.279c6.004,0,7.705,4.448,7.705,7.968c0,0.224,0,0.384-0.039,0.544h-15.219
		c-0.037,5.376,2.945,8.447,8.043,8.447c3.021,0,4.533-0.64,5.627-1.088L253.432,100.855z M253.092,91.64
		c0.037-1.92-0.945-6.623-6.383-6.623c-4.721,0-6.873,3.775-7.252,6.623H253.092z"/>
	<path style="fill:#FFFFFF;" d="M275.709,97.848c0,1.12,0.076,2.592,0.189,3.808h-1.246l-0.113-3.424h-0.113
		c-1.209,2.304-4.23,3.808-7.326,3.808c-5.023,0-8.688-3.552-8.725-8.64c-0.037-5.728,4.117-9.279,9.139-9.279
		c2.568,0,5.553,1.217,6.762,3.2h0.113V76.217h1.32V97.848z M274.389,91.256c0-3.552-2.984-6.207-6.912-6.207
		c-4.645,0-7.742,3.455-7.742,8.191c0,3.936,2.645,7.871,7.592,7.871c4.381,0,7.063-3.52,7.063-6.336V91.256z"/>
	<path style="fill:#FFFFFF;" d="M283.561,80.856c-0.793,0-1.32-0.607-1.32-1.279s0.566-1.28,1.359-1.28s1.32,0.576,1.32,1.28
		C284.92,80.345,284.354,80.856,283.561,80.856z M284.24,101.655h-1.32v-17.15h1.32V101.655z"/>
	<path style="fill:#FFFFFF;" d="M303.385,97.592c0,1.344,0.039,2.688,0.303,4.063h-1.246l-0.303-2.592h-0.074
		c-0.945,1.312-3.211,2.976-6.533,2.976c-4.08,0-5.855-2.399-5.855-4.607c0-3.872,4.004-6.304,12.389-6.208
		c0-1.951,0-6.144-5.439-6.144c-1.699,0-3.512,0.48-4.984,1.376l-0.529-0.832c1.889-1.119,4.078-1.504,5.627-1.504
		c5.703,0,6.646,3.776,6.646,6.688V97.592z M302.025,92.216c-3.928-0.063-10.988,0.448-10.988,5.023
		c0,2.656,2.189,3.872,4.418,3.872c4.797,0,6.57-3.359,6.57-4.768V92.216z"/>
	<path style="fill:#FFFFFF;" d="M320.604,87.929c1.586-2.528,4.645-3.809,7.59-3.809c5.326,0,8.762,3.712,8.762,8.672
		c0,6.207-4.381,9.247-9.215,9.247c-2.869,0-5.664-1.248-7.137-3.392h-0.076v10.111h-1.322V89.944c0-2.145-0.037-3.808-0.15-5.439
		h1.359l0.113,3.424H320.604z M320.527,94.903c0,3.681,3.738,6.208,7.289,6.208c4.91,0,7.779-3.552,7.779-8.256
		c0-4.319-2.832-7.807-7.516-7.807c-4.721,0-7.553,3.775-7.553,6.495V94.903z"/>
	<path style="fill:#FFFFFF;" d="M350.281,85.208c-0.34-0.031-0.529-0.063-0.869-0.063c-3.285,0-5.627,3.071-5.627,6.911v9.6h-1.32
		V89.561c0-1.568-0.039-3.393-0.152-5.056h1.246l0.076,3.583h0.113c0.83-2.111,2.908-3.968,5.777-3.968
		c0.266,0,0.492,0.032,0.756,0.097V85.208z"/>
	<path style="fill:#FFFFFF;" d="M371.391,92.92c0,6.432-5.174,9.119-9.479,9.119c-5.174,0-9.139-3.455-9.139-8.799
		c0-5.92,4.568-9.12,9.365-9.12C367.766,84.12,371.391,87.736,371.391,92.92z M362.176,85.049c-5.324,0-8.043,4.031-8.043,8.095
		c0,4.256,3.436,7.968,7.816,7.968c4.42,0,8.082-3.328,8.082-8.063C370.031,89.4,367.689,85.049,362.176,85.049z"/>
	<path style="fill:#FFFFFF;" d="M373.918,85.496v-0.991h2.947v-0.736c0-5.6,3.02-7.583,6.381-7.583c1.322,0,2.531,0.479,3.098,0.831
		l-0.643,0.769c-0.566-0.32-1.549-0.672-2.605-0.672c-4.91,0-4.91,4.928-4.91,7.392h10.311v-0.992c0-2.72,0.566-4.863,2.191-6.239
		c1.17-1.024,2.793-1.473,4.342-1.473c1.285,0,2.418,0.32,2.984,0.672l-0.643,0.832c-0.566-0.256-1.133-0.575-2.455-0.575
		c-5.098,0-5.098,5.279-5.098,7.775h5.664v0.991h-5.664v16.159h-1.322V85.496h-10.311v16.159h-1.32V85.496H373.918z"/>
	<path style="fill:#FFFFFF;" d="M412.965,100.855c-0.568,0.288-2.607,1.151-6.27,1.151c-5.666,0-9.215-3.615-9.215-8.607
		c0-5.951,3.965-9.279,8.912-9.279c6.004,0,7.705,4.448,7.705,7.968c0,0.224,0,0.384-0.039,0.544H398.84
		c-0.037,5.376,2.945,8.447,8.043,8.447c3.021,0,4.533-0.64,5.627-1.088L412.965,100.855z M412.623,91.64
		c0.039-1.92-0.943-6.623-6.381-6.623c-4.721,0-6.873,3.775-7.252,6.623H412.623z"/>
	<path style="fill:#FFFFFF;" d="M428.143,86.137c-1.096-0.672-2.416-1.088-3.738-1.088c-2.758,0-4.418,1.6-4.418,3.264
		c0,1.951,1.51,2.88,4.305,3.871c3.209,1.088,5.174,2.4,5.174,5.024c0,2.976-2.795,4.799-6.533,4.799
		c-1.889,0-3.551-0.447-4.947-1.216l0.643-0.928c1.133,0.608,2.982,1.216,4.379,1.216c2.568,0,5.1-1.344,5.1-3.68
		c0-2.048-1.473-3.199-4.457-4.224c-3.248-1.088-5.021-2.527-5.021-4.575c0-2.368,2.152-4.48,5.891-4.48
		c1.813,0,3.285,0.513,4.305,1.152L428.143,86.137z"/>
	<path style="fill:#FFFFFF;" d="M435.768,80.856c-0.793,0-1.32-0.607-1.32-1.279s0.566-1.28,1.359-1.28s1.32,0.576,1.32,1.28
		C437.127,80.345,436.561,80.856,435.768,80.856z M436.447,101.655h-1.32v-17.15h1.32V101.655z"/>
	<path style="fill:#FFFFFF;" d="M460.541,92.92c0,6.432-5.174,9.119-9.479,9.119c-5.174,0-9.139-3.455-9.139-8.799
		c0-5.92,4.568-9.12,9.365-9.12C456.916,84.12,460.541,87.736,460.541,92.92z M451.326,85.049c-5.324,0-8.043,4.031-8.043,8.095
		c0,4.256,3.436,7.968,7.816,7.968c4.42,0,8.082-3.328,8.082-8.063C459.182,89.4,456.84,85.049,451.326,85.049z"/>
	<path style="fill:#FFFFFF;" d="M481.461,101.655h-1.322V91.448c0-3.296-1.512-6.368-5.967-6.368c-4.041,0-6.799,3.2-6.799,5.856
		v10.719h-1.32V88.376c0-1.472-0.039-2.56-0.152-3.871h1.285l0.113,3.199h0.074c1.436-2.208,4.004-3.584,7.1-3.584
		c1.588,0,6.988,0.608,6.988,7.231V101.655z"/>
	<path style="fill:#FFFFFF;" d="M500.414,97.592c0,1.344,0.039,2.688,0.303,4.063h-1.246l-0.303-2.592h-0.074
		c-0.945,1.312-3.211,2.976-6.533,2.976c-4.08,0-5.855-2.399-5.855-4.607c0-3.872,4.004-6.304,12.389-6.208
		c0-1.951,0-6.144-5.439-6.144c-1.699,0-3.512,0.48-4.984,1.376l-0.529-0.832c1.889-1.119,4.08-1.504,5.627-1.504
		c5.703,0,6.646,3.776,6.646,6.688V97.592z M499.055,92.216c-3.928-0.063-10.988,0.448-10.988,5.023
		c0,2.656,2.189,3.872,4.418,3.872c4.797,0,6.57-3.359,6.57-4.768V92.216z"/>
	<rect x="507.438" y="76.217" style="fill:#FFFFFF;" width="1.32" height="25.438"/>
</g>
</svg>
