<?xml version="1.0" encoding="iso-8859-1"?>
<!-- Generator: Adobe Illustrator 19.1.0, SVG Export Plug-In . SVG Version: 6.00 Build 0)  -->
<svg version="1.1" id="Layer_1" xmlns="http://www.w3.org/2000/svg" xmlns:xlink="http://www.w3.org/1999/xlink" x="0px" y="0px"
	 viewBox="0 0 524.286 108.721" style="enable-background:new 0 0 524.286 108.721;" xml:space="preserve">
<g>
	<polyline style="fill:#2B2A2A;" points="75,73.01 0,73.01 0,0.01 75,0.01 75,73.01 	"/>
	<path style="fill:#FFFFFF;" d="M75.842,18.554c-3.675-0.857-7.967-1.48-12.025-1.482c-25.494,0.001-46.157,20.666-46.159,46.159
		c0.004,3.538,0.596,7.582,1.313,10.813l3.904-0.87c-0.667-2.979-1.221-6.854-1.218-9.942c0.001-11.648,4.716-22.175,12.348-29.81
		c7.635-7.633,18.162-12.347,29.811-12.348c3.646-0.002,7.701,0.578,11.115,1.377L75.842,18.554"/>
	<path style="fill:#FFFFFF;" d="M75.13,21.601L75,22.157v28.442l0.113-0.123c-0.185-1.266,0.052-2.44,0.093-3.756
		c0.012-0.396,0.014-0.792,0.017-1.188c-0.005-0.196-0.017-0.39-0.017-0.586c0-0.155,0.01-0.308,0.013-0.463
		c-0.04-3.464-0.334-6.917-0.118-10.388c0.022-0.337,0.036-0.674,0.052-1.012c-0.031-0.494-0.052-0.991-0.052-1.492
		c0-0.909,0.056-1.806,0.157-2.691c0.011-2.044-0.022-4.087-0.041-6.132C75.18,22.381,75.15,21.992,75.13,21.601"/>
	<path style="fill:#AAAAAA;" d="M63.836,21.072c-0.006,0-0.013,0-0.019,0c-11.648,0.001-22.175,4.716-29.811,12.348
		c-7.633,7.635-12.347,18.163-12.348,29.81c-0.003,2.956,0.504,6.632,1.132,9.554c0.593,0.005,1.051,0.009,1.051,0.009h2.113h0.811
		h2.054l13.508-0.01h3.375c0.004,0,0.008,0,0.012,0c0.143,0,0.306,0.04,0.448,0.04c0.616,0,1.174,0.022,1.78,0.068
		c0.188-0.014,0.375-0.019,0.563-0.019c0.415,0,0.832,0.024,1.253,0.024c0.545,0,1.085,0.024,1.624,0.061
		c0.982-0.157,1.995-0.231,3.021-0.231c0.117,0,0.235,0.001,0.352,0.003L75,50.599V22.157l-0.068,0.293
		C71.523,21.651,67.476,21.072,63.836,21.072"/>
	<path style="fill:#FFFFFF;" d="M63.716,18.985c-11.805,0-23.578,4.703-32.272,14.011c-10.368,11.1-14.008,26.001-10.899,39.779
		h0.225c0.547,0,1.366,0.005,2.02,0.01c-0.629-2.922-1.136-6.598-1.132-9.554c0.001-11.648,4.716-22.175,12.348-29.81
		c7.635-7.633,18.162-12.347,29.811-12.348c0.006,0,0.013,0,0.019,0c3.641,0,7.688,0.579,11.096,1.377L75,22.157l0.13-0.556
		c-0.018-0.355-0.029-0.711-0.029-1.07l0.002-0.06C71.374,19.479,67.543,18.985,63.716,18.985"/>
	<path style="fill-rule:evenodd;clip-rule:evenodd;fill:#1680BA;" d="M53.26,85.957c-1.438-8.966-6.82-11.414-10.065-15.684
		c-7.09-9.352-3.983-23.198,5.853-29.334c5.97-3.711,15.304-4.232,21.76-1.483c11.655,4.964,16.236,19.935,9.016,30.181
		c-3.088,4.385-8.391,7.011-9.509,16.02L53.26,85.957z"/>
	<path style="fill:#FFFFFF;" d="M53.26,85.957l0.987-0.158c-0.74-4.662-2.565-7.737-4.581-10.093
		c-2.018-2.358-4.167-4.039-5.675-6.037c-2.49-3.286-3.653-7.153-3.654-11.039c-0.003-6.588,3.366-13.183,9.24-16.842l-0.001,0.001
		c3.236-2.018,7.648-3.075,11.977-3.072c3.168-0.001,6.288,0.561,8.863,1.66c7.442,3.161,11.873,10.668,11.87,18.196
		c-0.001,3.661-1.042,7.312-3.28,10.489c-1.434,2.051-3.523,3.805-5.459,6.23c-1.934,2.423-3.651,5.558-4.225,10.243l0.992,0.123
		l-0.018-1l-17.055,0.299L53.26,85.957l0.987-0.158L53.26,85.957l0.018,1L71.2,86.642l0.107-0.861
		c0.544-4.324,2.037-7.007,3.806-9.246c1.767-2.236,3.874-3.988,5.528-6.322c2.489-3.531,3.646-7.602,3.645-11.641
		c-0.002-8.293-4.849-16.52-13.087-20.036c-2.881-1.225-6.245-1.818-9.646-1.819c-4.648,0.004-9.375,1.105-13.033,3.373
		l-0.001,0.001C42.02,44.151,38.34,51.372,38.338,58.63c-0.001,4.283,1.29,8.594,4.061,12.248c1.737,2.272,3.902,3.95,5.745,6.125
		c1.845,2.177,3.431,4.809,4.129,9.113l0.137,0.857l0.868-0.015L53.26,85.957z"/>
	<path style="fill-rule:evenodd;clip-rule:evenodd;fill:#494848;" d="M56.582,97.782l9.454-0.031
		c0.844-0.003,1.532,0.675,1.529,1.516c0.007,0.839-0.674,1.528-1.513,1.53l-9.457,0.04c-0.84,0.002-1.528-0.681-1.526-1.522
		C55.064,98.472,55.743,97.787,56.582,97.782z"/>
	<path style="fill:#1680BA;" d="M148.751,9.27c0,0.962-0.481,1.442-1.442,1.442h-31.106c-2.884,0-5.34,0.584-7.364,1.751
		c-2.026,1.168-3.486,2.198-4.377,3.09c-2.542,2.404-3.811,5.631-3.811,9.682v44.084c0,0.962-0.481,1.441-1.442,1.441h-8.755
		c-0.962,0-1.442-0.479-1.442-1.441V25.235c0-3.708,0.634-7.107,1.905-10.197c1.27-3.09,3.175-5.768,5.717-8.034
		c4.875-4.532,11.33-6.866,19.364-7.004h0.103h31.209c0.961,0,1.442,0.447,1.442,1.339V9.27z M148.648,39.655
		c0,0.962-0.481,1.442-1.442,1.442h-38.522c-0.962,0-1.442-0.479-1.442-1.442v-7.931c0-0.96,0.479-1.442,1.442-1.442h38.522
		c0.961,0,1.442,0.481,1.442,1.442V39.655z"/>
	<path style="fill:#1680BA;" d="M219.203,35.226c0,4.944-0.808,9.597-2.42,13.957c-1.614,4.362-3.829,8.155-6.644,11.382
		c-2.816,3.228-6.112,5.785-9.888,7.673c-3.777,1.89-7.828,2.833-12.154,2.833h-2.472c-0.206,0-0.309-0.036-0.309-0.104
		c-4.189,0-8.085-0.634-11.69-1.905c-3.605-1.27-6.782-3.106-9.527-5.511c-3.022-2.539-5.305-5.578-6.85-9.116
		c-1.545-3.536-2.317-7.364-2.317-11.484V1.854c0-0.961,0.479-1.442,1.442-1.442h8.755c0.961,0,1.442,0.481,1.442,1.442v41.097
		c0,5.013,1.715,8.961,5.15,11.845c1.991,1.717,4.188,3.022,6.592,3.914c2.403,0.894,4.806,1.374,7.21,1.442h0.927
		c3.775,0.138,6.986-0.635,9.63-2.318c2.643-1.682,4.823-3.793,6.541-6.334c1.716-2.54,2.969-5.27,3.76-8.188
		c0.789-2.918,1.184-5.614,1.184-8.086c0-3.296-0.499-6.386-1.493-9.27c-0.997-2.884-2.49-5.423-4.48-7.622
		c-0.618-0.686-1.375-1.458-2.266-2.318c-0.893-0.857-1.923-1.664-3.09-2.42c-1.168-0.755-2.438-1.391-3.811-1.905
		c-1.375-0.515-2.816-0.772-4.326-0.772h-13.699c-0.412,0-0.756-0.155-1.03-0.464c-0.275-0.309-0.412-0.634-0.412-0.979V1.545
		c0-0.892,0.479-1.339,1.442-1.339h13.699c4.257,0,8.292,0.894,12.103,2.678c3.811,1.787,7.192,4.361,10.146,7.725
		c2.884,3.296,5.081,7.055,6.592,11.278C218.447,26.11,219.203,30.557,219.203,35.226z"/>
	<path style="fill:#1680BA;" d="M255.354,35.123c-0.068,4.189-0.652,8.07-1.75,11.639c-1.1,3.571-2.713,6.661-4.842,9.27
		c-1.646,1.993-3.191,3.847-4.635,5.562c-1.441,1.718-2.713,3.263-3.811,4.636c-1.236,1.58-2.369,3.021-3.399,4.325
		c-0.275,0.275-0.584,0.412-0.927,0.412l-11.536-0.103c-0.48,0-0.858-0.273-1.133-0.824c-0.137-0.412-0.137-0.755,0-1.03
		c0.139-0.273,0.344-0.582,0.618-0.927l1.133-1.339l3.811-4.841c1.373-1.785,3.021-3.862,4.944-6.232
		c1.922-2.369,3.879-4.72,5.871-7.056c1.373-1.648,2.385-3.672,3.038-6.077c0.652-2.402,0.979-4.892,0.979-7.467
		s-0.309-5.063-0.926-7.467c-0.619-2.403-1.478-4.429-2.576-6.077c-0.618-0.961-1.442-2.163-2.472-3.605
		c-1.03-1.442-2.129-2.952-3.296-4.532l-2.06-2.781c-1.099-1.442-2.214-2.952-3.347-4.532c-1.133-1.579-1.975-2.746-2.524-3.502
		c-0.275-0.479-0.309-0.995-0.103-1.545c0.206-0.479,0.618-0.721,1.236-0.721h10.815c0.549,0,0.927,0.206,1.133,0.618
		c0.412,0.55,0.772,1.014,1.082,1.391c0.309,0.378,0.634,0.808,0.979,1.288c0.273,0.412,0.583,0.841,0.927,1.287
		c0.344,0.448,0.756,0.979,1.236,1.597c1.236,1.717,2.385,3.314,3.451,4.79c1.063,1.478,1.939,2.729,2.625,3.759
		c1.785,2.542,3.143,5.562,4.068,9.064C254.892,27.604,255.354,31.278,255.354,35.123z M293.157,70.04
		c-0.275,0.551-0.654,0.824-1.135,0.824l-11.535,0.103c-0.344,0-0.654-0.137-0.928-0.412c-1.098-1.304-2.266-2.745-3.502-4.325
		c-1.098-1.373-2.352-2.918-3.76-4.636c-1.408-1.715-2.934-3.569-4.582-5.562c-2.129-2.609-3.744-5.699-4.842-9.27
		c-1.1-3.569-1.684-7.45-1.75-11.639c0-3.845,0.463-7.519,1.391-11.021c0.926-3.502,2.281-6.522,4.068-9.064
		c0.686-1.03,1.561-2.282,2.625-3.759c1.064-1.476,2.215-3.072,3.451-4.79l2.164-2.884c0.342-0.48,0.668-0.91,0.979-1.288
		c0.309-0.376,0.633-0.84,0.979-1.391c0.273-0.412,0.686-0.618,1.234-0.618h10.816c0.549,0,0.961,0.242,1.234,0.721
		c0.207,0.55,0.172,1.065-0.102,1.545c-0.551,0.756-1.391,1.923-2.523,3.502c-1.133,1.581-2.25,3.09-3.348,4.532l-2.061,2.781
		c-1.168,1.581-2.266,3.09-3.297,4.532c-1.029,1.442-1.854,2.644-2.471,3.605c-1.1,1.648-1.957,3.674-2.576,6.077
		c-0.617,2.404-0.926,4.892-0.926,7.467s0.324,5.065,0.979,7.467c0.652,2.405,1.664,4.429,3.039,6.077
		c1.99,2.335,3.947,4.687,5.869,7.056c1.922,2.37,3.57,4.447,4.945,6.232l3.811,4.841l1.133,1.339
		c0.273,0.345,0.48,0.653,0.619,0.927C293.294,69.285,293.294,69.628,293.157,70.04z"/>
	<path style="fill:#393737;" d="M343.832,58.916c0.068,0.275-0.035,0.618-0.309,1.03c-0.345,0.344-0.721,0.515-1.133,0.515h-9.477
		c-0.893,0-1.339-0.445-1.339-1.339c-0.412-4.326-0.79-8.12-1.133-11.382c-0.345-3.261-0.653-6.111-0.927-8.549
		c-0.275-2.437-0.499-4.497-0.67-6.18c-0.172-1.682-0.293-3.072-0.36-4.171l-0.412-4.326c-0.345-3.021-0.859-5.423-1.545-7.21
		c-0.688-1.785-1.493-3.158-2.421-4.12c-0.927-0.96-1.905-1.579-2.935-1.854c-1.03-0.273-2.061-0.412-3.091-0.412
		c-2.266,0-4.052,0.653-5.355,1.957c-2.541,2.472-3.812,7.004-3.812,13.596v42.951c0,0.963-0.48,1.442-1.441,1.442h-8.755
		c-0.963,0-1.442-0.479-1.442-1.442V26.471c0-7.828,1.545-13.973,4.635-18.437C305.619,2.678,311.009,0,318.082,0
		c3.296,0,6.351,0.687,9.167,2.06c2.815,1.375,5.185,3.262,7.107,5.665l0.103,0.206c2.952,3.777,4.806,9.03,5.563,15.759
		L343.832,58.916z M377.72,69.422c0,0.963-0.481,1.442-1.442,1.442h-8.755c-0.963,0-1.442-0.479-1.442-1.442V26.471
		c0-1.785-0.12-3.621-0.36-5.51c-0.241-1.888-0.705-3.587-1.391-5.099c-0.687-1.51-1.632-2.746-2.832-3.708
		c-1.202-0.961-2.729-1.442-4.584-1.442c-1.099,0-2.369,0.378-3.811,1.133c-1.442,0.756-2.747,1.923-3.914,3.502
		c-0.618,0.756-1.271,0.824-1.957,0.206l-7.107-5.253c-0.344-0.206-0.515-0.515-0.515-0.927c-0.139-0.412-0.035-0.789,0.309-1.133
		c1.991-2.609,4.445-4.635,7.365-6.077C350.2,0.721,353.411,0,356.913,0c7.004,0,12.395,2.678,16.171,8.034
		c3.091,4.464,4.636,10.609,4.636,18.437V69.422z"/>
	<path style="fill:#393737;" d="M450.849,56.856c0,0.481-0.104,0.859-0.31,1.133c-1.717,2.335-3.537,4.31-5.459,5.922
		c-1.923,1.614-3.982,2.972-6.18,4.069c-2.06,0.962-4.274,1.683-6.644,2.162c-2.369,0.481-4.995,0.688-7.88,0.618l-13.492-0.103
		c-8.034-0.137-14.489-2.472-19.364-7.004c-2.541-2.267-4.446-4.944-5.717-8.035c-1.271-3.09-1.905-6.489-1.905-10.197V25.235
		c0-3.708,0.634-7.107,1.905-10.197c1.271-3.09,3.176-5.768,5.717-8.034c4.875-4.532,11.33-6.866,19.364-7.004h0.103h31.209
		c0.961,0,1.442,0.447,1.442,1.339v7.725c0,0.344-0.139,0.669-0.412,0.979c-0.275,0.309-0.618,0.463-1.03,0.463h-31.105
		c-1.375,0-2.662,0.172-3.863,0.515c-1.202,0.344-2.301,0.772-3.296,1.287c-0.996,0.515-1.889,1.065-2.678,1.648
		c-0.79,0.584-1.426,1.117-1.905,1.597c-2.541,2.404-3.812,5.631-3.812,9.682v20.188c0,4.052,1.271,7.279,3.812,9.682
		c0.961,0.893,2.437,1.905,4.429,3.039c1.991,1.133,4.429,1.735,7.313,1.803h1.647c0.824,0,2.146,0.018,3.966,0.051
		c1.818,0.036,4.377,0.052,7.673,0.052c3.64,0,6.747-0.686,9.322-2.06c2.575-1.373,5.063-3.672,7.467-6.901
		c0.206-0.343,0.498-0.549,0.876-0.618c0.377-0.067,0.737,0.036,1.081,0.309l7.107,5.15
		C450.504,56.135,450.71,56.444,450.849,56.856z M443.535,39.758c0,0.893-0.48,1.339-1.441,1.339h-38.522
		c-0.962,0-1.441-0.446-1.441-1.339v-7.931c0-0.96,0.479-1.442,1.441-1.442h38.522c0.961,0,1.441,0.481,1.441,1.442V39.758z"/>
	<path style="fill:#393737;" d="M524.286,35.226c0,4.602-0.738,9.013-2.214,13.236c-1.478,4.223-3.623,7.982-6.438,11.279
		c-2.954,3.502-6.335,6.164-10.146,7.982c-3.812,1.82-7.846,2.729-12.103,2.729h-17.099c-0.962,0-1.441-0.479-1.441-1.442v-7.828
		c0-0.892,0.479-1.339,1.441-1.339h17.099c2.539,0,4.978-0.634,7.313-1.905c2.334-1.27,4.394-3.072,6.18-5.408
		c1.854-2.403,3.278-5.099,4.275-8.085c0.994-2.987,1.493-6.06,1.493-9.219c0-3.296-0.515-6.438-1.545-9.424
		s-2.421-5.578-4.172-7.776c-1.751-2.197-3.795-3.948-6.128-5.253c-2.336-1.304-4.808-1.957-7.416-1.957h-9.167
		c-2.953,0-5.408,0.584-7.365,1.751c-1.957,1.168-3.416,2.163-4.377,2.987c-2.541,2.404-3.812,5.631-3.812,9.682v43.878
		c0,0.962-0.48,1.441-1.441,1.441h-8.755c-0.963,0-1.442-0.479-1.442-1.441V25.235c0-3.708,0.634-7.107,1.905-10.197
		c1.271-3.09,3.176-5.768,5.717-8.034c4.875-4.532,11.33-6.866,19.364-7.004h0.103h9.271c4.257,0,8.291,0.893,12.103,2.678
		c3.811,1.787,7.191,4.429,10.146,7.931c2.814,3.296,4.96,7.055,6.438,11.278C523.548,26.11,524.286,30.557,524.286,35.226z"/>
	<path style="fill:#2B2A2A;" d="M108.587,100.818h-1.322l-11.48-14.783c-2.153-2.816-4.041-5.184-5.514-7.615l-0.113,0.031
		c0.227,2.528,0.227,4.032,0.227,9.375v12.992h-1.322V76.66h1.246l11.821,15.103c2.379,3.104,3.965,5.151,5.324,7.423l0.076-0.063
		c-0.265-3.231-0.265-5.855-0.265-9.663V76.66h1.322V100.818z"/>
	<path style="fill:#2B2A2A;" d="M129.542,100.018c-0.566,0.289-2.605,1.152-6.269,1.152c-5.665,0-9.215-3.615-9.215-8.607
		c0-5.951,3.965-9.279,8.912-9.279c6.005,0,7.704,4.447,7.704,7.967c0,0.225,0,0.385-0.037,0.545h-15.22
		c-0.038,5.375,2.945,8.447,8.044,8.447c3.021,0,4.532-0.641,5.627-1.088L129.542,100.018z M129.202,90.803
		c0.038-1.92-0.944-6.623-6.383-6.623c-4.721,0-6.873,3.775-7.251,6.623H129.202z"/>
	<path style="fill:#2B2A2A;" d="M161.979,83.667l-6.948,17.151h-1.096l-4.116-10.111c-0.906-2.176-1.549-3.744-2.19-5.824h-0.113
		c-0.642,2.016-1.473,3.775-2.379,5.824l-4.306,10.111h-1.133l-6.383-17.151h1.549l3.663,10.208c0.718,2.047,1.284,3.68,1.813,5.279
		h0.076c0.528-1.536,1.246-3.232,2.114-5.248l4.268-10.239h1.511l4.192,10.144c0.868,2.111,1.473,3.744,2.001,5.344h0.151
		c0.453-1.536,1.096-3.2,1.889-5.279l3.89-10.208H161.979z"/>
	<path style="fill:#2B2A2A;" d="M202.533,100.818h-1.322v-9.984c0-4.063-1.851-6.591-5.627-6.591c-3.323,0-6.118,2.848-6.118,5.472
		v11.104h-1.321V90.002c0-3.23-1.851-5.759-5.325-5.759c-3.663,0-6.42,3.264-6.42,5.952v10.623h-1.322V87.539
		c0-1.473-0.038-2.561-0.151-3.872h1.284l0.113,3.168h0.076c1.359-2.144,3.36-3.552,6.685-3.552c2.832,0,5.022,1.695,5.815,3.904
		h0.075c0.756-1.44,2.606-3.904,7.024-3.904c1.662,0,6.534,0.704,6.534,7.424V100.818z"/>
	<path style="fill:#2B2A2A;" d="M223.26,100.018c-0.566,0.289-2.605,1.152-6.269,1.152c-5.665,0-9.215-3.615-9.215-8.607
		c0-5.951,3.965-9.279,8.912-9.279c6.005,0,7.704,4.447,7.704,7.967c0,0.225,0,0.385-0.037,0.545h-15.22
		c-0.038,5.375,2.945,8.447,8.044,8.447c3.021,0,4.531-0.641,5.627-1.088L223.26,100.018z M222.92,90.803
		c0.038-1.92-0.944-6.623-6.383-6.623c-4.721,0-6.873,3.775-7.251,6.623H222.92z"/>
	<path style="fill:#2B2A2A;" d="M245.539,97.01c0,1.12,0.075,2.592,0.188,3.809h-1.246l-0.113-3.424h-0.113
		c-1.209,2.303-4.229,3.807-7.327,3.807c-5.022,0-8.686-3.551-8.724-8.639c-0.037-5.728,4.116-9.279,9.14-9.279
		c2.568,0,5.552,1.216,6.76,3.199h0.113V75.38h1.322V97.01z M244.217,90.418c0-3.551-2.983-6.207-6.911-6.207
		c-4.645,0-7.742,3.456-7.742,8.191c0,3.936,2.644,7.871,7.591,7.871c4.381,0,7.063-3.52,7.063-6.335V90.418z"/>
	<path style="fill:#2B2A2A;" d="M253.429,80.02c-0.794,0-1.322-0.607-1.322-1.28c0-0.672,0.566-1.28,1.359-1.28
		s1.322,0.576,1.322,1.28C254.788,79.508,254.222,80.02,253.429,80.02z M254.108,100.818h-1.322V83.667h1.322V100.818z"/>
	<path style="fill:#2B2A2A;" d="M273.253,96.754c0,1.344,0.037,2.688,0.302,4.064h-1.246l-0.302-2.592h-0.076
		c-0.944,1.312-3.21,2.975-6.533,2.975c-4.079,0-5.854-2.398-5.854-4.607c0-3.871,4.003-6.303,12.387-6.207
		c0-1.952,0-6.144-5.438-6.144c-1.7,0-3.513,0.479-4.985,1.376l-0.529-0.832c1.889-1.12,4.079-1.504,5.628-1.504
		c5.702,0,6.646,3.775,6.646,6.688V96.754z M271.894,91.379c-3.928-0.064-10.99,0.447-10.99,5.023c0,2.656,2.19,3.871,4.419,3.871
		c4.796,0,6.571-3.359,6.571-4.768V91.379z"/>
	<path style="fill:#2B2A2A;" d="M282.087,97.811c-0.68,2.527-2.454,6.688-2.945,7.423l-1.133,0.128
		c0.566-1.248,1.699-5.119,2.039-7.199L282.087,97.811z"/>
	<path style="fill:#2B2A2A;" d="M310.105,83.667l-6.269,13.022c-4.154,8.864-5.703,10.208-10.008,12.031l-0.491-0.896
		c5.589-1.855,7.401-7.455,7.401-7.552c0-0.16-0.113-0.383-0.264-0.703l-7.554-15.903h1.511l5.627,11.808
		c0.566,1.248,1.021,2.271,1.587,3.615h0.075c0.604-1.279,1.095-2.432,1.737-3.871l5.174-11.552H310.105z"/>
	<path style="fill:#2B2A2A;" d="M331.139,92.082c0,6.432-5.174,9.119-9.479,9.119c-5.174,0-9.139-3.455-9.139-8.799
		c0-5.92,4.569-9.119,9.365-9.119C327.513,83.283,331.139,86.898,331.139,92.082z M321.924,84.211c-5.325,0-8.044,4.031-8.044,8.096
		c0,4.256,3.437,7.967,7.817,7.967c4.418,0,8.082-3.327,8.082-8.063C329.779,88.563,327.438,84.211,321.924,84.211z"/>
	<path style="fill:#2B2A2A;" d="M351.681,96.85c0,1.408,0.037,2.656,0.15,3.969h-1.246l-0.151-3.137h-0.075
		c-1.02,1.664-3.285,3.52-6.949,3.52c-2.341,0-6.948-0.895-6.948-7.551v-9.983h1.321v9.632c0,4.319,1.851,6.975,5.816,6.975
		c3.475,0,6.76-2.783,6.76-5.951V83.667h1.322V96.85z"/>
	<path style="fill:#2B2A2A;" d="M366.744,84.371c-0.34-0.032-0.528-0.064-0.868-0.064c-3.286,0-5.627,3.072-5.627,6.912v9.6h-1.322
		V88.723c0-1.568-0.038-3.392-0.151-5.056h1.247l0.075,3.584h0.113c0.831-2.112,2.908-3.968,5.778-3.968
		c0.265,0,0.491,0.031,0.755,0.096V84.371z"/>
	<path style="fill:#2B2A2A;" d="M394.385,83.667l-8.309,17.151h-1.133l-8.082-17.151h1.587l5.022,11.104
		c0.831,1.728,1.511,3.071,2.077,4.544h0.075c0.604-1.44,1.322-2.881,2.153-4.544l5.136-11.104H394.385z"/>
	<path style="fill:#2B2A2A;" d="M399.178,80.02c-0.794,0-1.322-0.607-1.322-1.28c0-0.672,0.566-1.28,1.359-1.28
		s1.322,0.576,1.322,1.28C400.537,79.508,399.971,80.02,399.178,80.02z M399.857,100.818h-1.322V83.667h1.322V100.818z"/>
	<path style="fill:#2B2A2A;" d="M415.604,85.299c-1.095-0.672-2.417-1.088-3.738-1.088c-2.757,0-4.419,1.6-4.419,3.264
		c0,1.952,1.511,2.88,4.306,3.872c3.21,1.088,5.174,2.399,5.174,5.023c0,2.976-2.795,4.8-6.533,4.8
		c-1.889,0-3.551-0.448-4.947-1.216l0.642-0.929c1.133,0.608,2.983,1.217,4.381,1.217c2.568,0,5.099-1.344,5.099-3.68
		c0-2.049-1.474-3.2-4.457-4.225c-3.247-1.088-5.022-2.527-5.022-4.575c0-2.368,2.152-4.479,5.892-4.479
		c1.813,0,3.285,0.512,4.305,1.152L415.604,85.299z"/>
	<path style="fill:#2B2A2A;" d="M423.269,80.02c-0.794,0-1.322-0.607-1.322-1.28c0-0.672,0.566-1.28,1.359-1.28
		s1.322,0.576,1.322,1.28C424.628,79.508,424.062,80.02,423.269,80.02z M423.948,100.818h-1.322V83.667h1.322V100.818z"/>
	<path style="fill:#2B2A2A;" d="M448.04,92.082c0,6.432-5.174,9.119-9.479,9.119c-5.174,0-9.139-3.455-9.139-8.799
		c0-5.92,4.569-9.119,9.365-9.119C444.414,83.283,448.04,86.898,448.04,92.082z M438.825,84.211c-5.325,0-8.044,4.031-8.044,8.096
		c0,4.256,3.437,7.967,7.817,7.967c4.418,0,8.082-3.327,8.082-8.063C446.681,88.563,444.339,84.211,438.825,84.211z"/>
	<path style="fill:#2B2A2A;" d="M468.959,100.818h-1.321V90.611c0-3.297-1.511-6.368-5.967-6.368c-4.041,0-6.798,3.2-6.798,5.855
		v10.72h-1.322V87.539c0-1.473-0.038-2.561-0.151-3.872h1.284l0.113,3.2h0.076c1.435-2.208,4.003-3.584,7.1-3.584
		c1.586,0,6.986,0.607,6.986,7.231V100.818z"/>
	<path style="fill-rule:evenodd;clip-rule:evenodd;fill:#494848;" d="M55.431,92.769l11.792-0.045
		c1.047-0.006,1.904,0.85,1.91,1.892c-0.001,1.042-0.849,1.907-1.895,1.91L55.444,96.57c-1.046,0.004-1.903-0.849-1.905-1.893
		C53.528,93.631,54.379,92.773,55.431,92.769z"/>
	<path style="fill-rule:evenodd;clip-rule:evenodd;fill:#494848;" d="M54.122,86.911l14.448-0.056
		c1.28-0.007,2.334,1.04,2.338,2.315l0.001,0.005c0.003,1.281-1.04,2.334-2.324,2.343l-14.448,0.054
		c-1.28,0.009-2.333-1.034-2.339-2.325C51.795,87.972,52.837,86.918,54.122,86.911z"/>
	<path style="fill-rule:evenodd;clip-rule:evenodd;fill:#FFFFFF;" d="M43.648,56.812c-0.002,0.888,0.726,1.612,1.62,1.614
		c0.897-0.004,1.621-0.737,1.612-1.629c-0.012-3.007,1.197-5.731,3.15-7.699c1.97-1.975,4.681-3.213,7.682-3.225
		c0.893-0.003,1.618-0.727,1.614-1.619c-0.003-0.892-0.73-1.611-1.623-1.608c-3.894,0.016-7.418,1.605-9.959,4.172l0.001,0.005
		C45.204,49.39,43.629,52.926,43.648,56.812z"/>
</g>
</svg>
