<svg style="position: absolute; width: 0; height: 0;" width="0" height="0" version="1.1" xmlns="http://www.w3.org/2000/svg" xmlns:xlink="http://www.w3.org/1999/xlink">
<defs>
<symbol id="icon-car" viewBox="0 0 1562 1024">
	<title>car</title>
	<path class="path1" d="M526.826 310.532c89.816-57.428 211.795-57.353 301.723-0.112l-39.623 60.727c-65.338-45.17-157.89-45.095-222.928 0.45l-39.173-61.064zM451.891 193.877c136.148-80.295 316.305-79.995 452.304 0.487l-39.398 60.465c-112.083-68.337-261.651-68.374-373.696 0.037l-39.21-60.989zM377.257 77.596c182.481-103.798 420.291-103.386 602.472 0.825l-39.398 60.427c-158.040-91.765-365.824-92.028-524.127-0.6l-38.948-60.652zM1193.961 620.84c87.904 15.144 128.989 23.129 177.008 36.961 51.805 14.882 106.647 30.401 145.857 69.611 18.443 18.443 31.863 47.082 40.222 77.896 8.472 31.413 5.773 63.351-7.46 92.965l-15.107 33.85c-12.22 27.327-34.187 28.677-67.362 28.939-21.442 0.187-43.296 0.187-64.663-1.237l-2.624-0.187c10.871-21.967 16.981-46.745 16.981-72.872 0-90.978-73.772-164.75-164.75-164.75s-164.713 73.81-164.713 164.75c0 26.128 6.11 50.831 16.906 72.76h-634.747c10.833-21.929 16.944-46.67 16.944-72.76 0-90.978-73.772-164.75-164.75-164.75-90.941 0-164.713 73.81-164.713 164.75 0 21.105 3.973 41.272 11.208 59.827l-65.113-7.685c-20.917-2.474-42.471-4.311-61.814-13.495-15.707-7.46-22.454-31.226-26.427-46.745-5.623-22.042-9.072-45.545-11.471-68.149-2.736-26.015-7.535-75.047 3.299-98.775 14.957-32.763 19.942-0.525 31.638-61.027 12.258-63.239 18.555-57.991 118.68-92.852 24.403-8.284 49.031-16.194 73.735-23.354 52.78-15.332 105.785-29.801 159.052-43.109 77.371-19.268 155.454-32.538 235.261-35.049 116.993-3.711 201.636 2.549 310.045 51.018 38.198 17.094 75.421 36.136 112.87 54.767 23.466 11.658 46.932 23.579 70.248 35.612 16.681 8.547 34.187 14.619 52.405 18.63 8.097 1.799 16.006 3.224 23.354 4.461v0zM1252.064 749.566c75.796 0 137.236 61.439 137.236 137.236 0 75.759-61.439 137.236-137.236 137.236-75.759 0-137.236-61.439-137.236-137.236s61.439-137.236 137.236-137.236v0zM321.703 749.566c75.796 0 137.236 61.439 137.236 137.236 0 75.759-61.439 137.236-137.236 137.236-75.759 0-137.198-61.439-137.198-137.236s61.439-137.236 137.198-137.236v0z"></path>
</symbol>
<symbol id="icon-checkmark" viewBox="0 0 1223 1024">
	<title>checkmark</title>
	<path class="path1" d="M412.38 1024l-412.38-537.484 185.339-189.973 227.041 291.91 718.19-588.452 92.67 88.036z"></path>
</symbol>
<symbol id="icon-ex" viewBox="0 0 1030 1024">
	<title>ex</title>
	<path class="path1" d="M680.815 521.855l349.525 502.145h-320.132l-199.659-320.083-197.447 320.083h-313.103l339.695-523.92-319.395-500.080h306.861l184.913 316.593 177.147-316.593h316.593l-324.998 521.855z"></path>
</symbol>
<symbol id="icon-facebook" viewBox="0 0 5181 1024">
	<title>facebook</title>
	<path class="path1" d="M2667.086 497.353c-42.795 0-73.63 13.992-104.89 28.246v322.896c29.983 2.916 47.088 2.916 75.563 2.916 102.695 0 116.752-46.989 116.752-112.558v-154.272c-0.033-48.333-16.089-87.228-87.425-87.228zM1985.184 479.724c-71.238 0-87.491 39.059-87.491 87.425v27.132h174.883v-27.132c0.033-48.366-16.22-87.425-87.392-87.425zM664.273 815.89c0 38.24 18.055 58.098 57.967 58.098 42.828 0 68.125-13.926 99.385-28.246v-76.546h-93.585c-44.302-0.033-63.767 8.159-63.767 46.694zM3330.408 497.353c-71.336 0-96.076 38.896-96.076 87.261v176.718c0 48.529 24.707 87.491 96.076 87.491 71.139 0 96.076-38.961 96.076-87.491v-176.718c0-48.366-24.936-87.261-96.076-87.261zM314.573 1013.94h-209.715v-506.986h-104.858v-174.752h104.858v-104.89c0-142.541 59.179-227.312 227.246-227.312h139.985v174.752h-87.458c-65.47 0-69.796 24.445-69.796 69.992l-0.262 87.458h158.532l-18.547 174.752h-139.985v506.986zM1031.471 1015.284h-174.817l-7.537-44.171c-79.856 44.171-151.093 51.315-198.083 51.315-128.254 0-196.477-85.524-196.477-203.85 0-139.526 79.626-189.334 222.102-189.334h144.998v-30.147c0-71.27-8.192-92.144-117.866-92.144h-179.372l17.564-174.752h196.018c240.714 0 293.47 75.956 293.47 268.304v414.777zM1625.915 519.766c-108.79-18.612-140.018-22.741-192.348-22.741-94.044 0-122.421 20.775-122.421 100.434v150.864c0 79.757 28.41 100.532 122.421 100.532 52.33 0 83.558-4.129 192.348-22.839v170.394c-95.289 21.398-157.352 26.968-209.814 26.968-225.214 0-314.704-118.26-314.704-289.145v-122.388c0-171.016 89.489-289.473 314.704-289.473 52.462 0 114.524 5.669 209.814 27.034v170.361zM2282.357 734.233h-384.631v14.090c0 79.757 28.41 100.532 122.421 100.532 84.541 0 136.086-4.129 244.646-22.839v170.394c-104.694 21.398-159.252 26.968-262.046 26.968-225.214 0-314.769-118.26-314.769-289.145v-139.952c0-149.455 66.486-271.942 297.239-271.942 230.785 0 297.14 121.045 297.14 271.942v139.952zM2964.226 737.444c0 165.151-47.251 285.606-333.545 285.606-103.318 0-164.037-9.11-278.168-26.64v-943.948l209.682-34.898v330.17c45.318-16.843 103.973-25.362 157.352-25.362 209.781 0 244.646 93.913 244.646 244.777v170.295zM3636.396 741.081c0 142.442-58.917 280.625-305.299 280.625-246.546 0-306.545-138.183-306.545-280.625v-137.56c0-142.508 59.965-280.691 306.545-280.691 246.383 0 305.299 138.183 305.299 280.691v137.56zM4308.042 741.081c0 142.442-58.95 280.625-305.267 280.625-246.546 0-306.577-138.183-306.577-280.625v-137.56c0-142.508 60.031-280.691 306.577-280.691 246.317 0 305.267 138.183 305.267 280.691v137.56zM4997.48 1013.94h-227.344l-192.217-320.406v320.406h-209.715v-961.479l209.715-34.898v618.955l192.217-304.316h227.344l-209.879 332.071 209.879 349.667zM4002.054 497.353c-71.238 0-95.945 38.896-95.945 87.261v176.718c0 48.529 24.707 87.491 95.945 87.491 71.139 0 96.305-38.961 96.305-87.491v-176.718c0-48.366-25.166-87.261-96.305-87.261z"></path>
	<path class="path2" d="M5117.182 894.403c35.291 0 63.439 28.77 63.439 64.684 0 36.471-28.148 64.913-63.767 64.913-35.291 0-64.061-28.475-64.061-64.913 0-35.914 28.77-64.684 64.061-64.684h0.328zM5116.854 904.462c-28.377 0-51.708 24.445-51.708 54.624 0 30.736 23.331 54.886 52.036 54.886 28.705 0.295 51.708-24.15 51.708-54.624 0-30.441-22.97-54.886-51.708-54.886h-0.328zM5104.796 996.737h-11.469v-72.188c6.029-0.852 11.731-1.704 20.349-1.704 10.945 0 18.121 2.261 22.446 5.439s6.554 8.028 6.554 14.942c0 9.47-6.259 15.204-13.992 17.564v0.59c6.291 1.147 10.617 6.849 12.026 17.465 1.737 11.239 3.473 15.565 4.62 17.891h-12.059c-1.737-2.294-3.506-8.946-4.915-18.383-1.737-9.241-6.291-12.681-15.565-12.681h-7.995v31.064zM5104.796 956.76h8.356c9.437 0 17.498-3.473 17.498-12.354 0-6.357-4.62-12.648-17.498-12.648-3.736 0-6.39 0.295-8.356 0.59v24.412z"></path>
</symbol>
<symbol id="icon-money" viewBox="0 0 1496 1024">
	<title>money</title>
	<path class="path1" d="M1496.259 386.937l-1102.173-386.937-147.918 389.618h77.79l80.503-212.046 21.45 7.533c38.496 13.502 80.822-5.426 94.899-42.454l7.82-20.62 335.29 117.722c-75.683 4.756-151.876 62.372-191.042 149.865h359.198c-7.118-44.337-26.398-83.248-55.765-110.412l335.258 117.69-7.82 20.62c-14.013 36.932 5.746 77.79 44.146 91.26l21.45 7.533-88.291 232.634v183.126l7.31 2.554 207.896-547.687zM35.048 937.815v0c-4.469 0-8.14 3.288-8.14 7.31v71.533c0 4.022 3.671 7.31 8.14 7.31h333.694c4.469 0 8.14-3.288 8.14-7.31v-71.533c0-4.022-3.671-7.31-8.14-7.31h-333.694zM54.296 821.626v0c-4.501 0-8.14 3.288-8.14 7.31v71.565c0 4.022 3.671 7.31 8.14 7.31h333.694c4.469 0 8.14-3.288 8.14-7.31v-71.565c0-4.022-3.671-7.31-8.14-7.31h-333.694zM8.14 709.363v0c-4.469 0-8.14 3.288-8.14 7.31v71.533c0 4.022 3.671 7.31 8.14 7.31h333.694c4.469 0 8.14-3.288 8.14-7.31v-71.533c0-4.022-3.671-7.31-8.14-7.31h-333.694zM1250.538 418.953h-1173.323v262.991h73.065v-99.591h22.823c40.986 0 74.023-31.729 74.023-71.182v-21.961h356.932c-73.608 31.218-126.564 118.488-126.564 221.271s52.988 190.053 126.564 221.271h-203.938v70.256h850.418v-583.054zM723.695 489.209h356.932v21.961c0 39.326 33.133 71.182 74.023 71.182h22.823v256.255h-22.823c-40.986 0-74.023 31.761-74.023 71.182v21.961h-356.9c73.576-31.218 126.532-118.488 126.532-221.271 0-102.751-52.956-190.021-126.564-221.271v0z"></path>
</symbol>
<symbol id="icon-performance" viewBox="0 0 1133 1024">
	<title>performance</title>
	<path class="path1" d="M0 731.213l139.869 143.776 295.902-292.812 137.851 142.499 425.045-424.611 133.867 132.59v-432.655l-415.392 9.193 137.723 144.21-279.303 290.284-147.479-143.571z"></path>
	<path class="path2" d="M545.173 802.59l-102.15-93.85v315.26h102.15z"></path>
	<path class="path3" d="M289.799 1024h102.15v-317.66l-102.15 107.206z"></path>
	<path class="path4" d="M698.398 695.027l-102.15 105.853v223.121h102.15z"></path>
	<path class="path5" d="M902.697 498.542v525.458h76.612v-624.416z"></path>
	<path class="path6" d="M238.724 859.437l-102.15 117.957v46.606h102.15z"></path>
	<path class="path7" d="M851.622 543.845l-102.15 105.853v374.302h102.15z"></path>
</symbol>
<symbol id="icon-period" viewBox="0 0 891 1024">
	<title>period</title>
	<path class="path1" d="M680.835 224.6c0 23.376-18.955 42.306-42.331 42.306v0c-23.376 0-42.331-18.955-42.331-42.306v-182.294c0.024-23.352 18.979-42.306 42.355-42.306v0c23.376 0 42.331 18.955 42.331 42.306v182.294z"></path>
	<path class="path2" d="M294.337 224.6c0 23.376-18.955 42.306-42.331 42.306v0c-23.376 0-42.331-18.955-42.331-42.306v-182.294c0.024-23.352 18.979-42.306 42.355-42.306v0c23.376 0 42.331 18.955 42.331 42.306v182.294z"></path>
	<path class="path3" d="M835.795 133.465h-133.050v91.135c0 35.418-28.799 64.217-64.217 64.217s-64.217-28.799-64.217-64.217v-91.135h-258.064v91.135c0 35.418-28.799 64.217-64.217 64.217s-64.217-28.799-64.217-64.217v-91.135h-133.075c-30.24 0-54.739 24.5-54.739 54.739v781.056c0 30.24 24.5 54.739 54.739 54.739h781.056c30.24 0 54.739-24.524 54.739-54.739v-781.056c0-30.24-24.5-54.739-54.739-54.739zM820.968 908.244c0 25.501-20.689 46.19-46.19 46.19h-659.022c-25.501 0-46.19-20.689-46.19-46.19v-486.597h751.402v486.597z"></path>
	<path class="path4" d="M311.142 476.386h111.237v111.262h-111.237v-111.262z"></path>
	<path class="path5" d="M468.155 476.386h111.237v111.262h-111.237v-111.262z"></path>
	<path class="path6" d="M625.192 476.386h111.262v111.262h-111.262v-111.262z"></path>
	<path class="path7" d="M154.081 632.422h111.262v111.262h-111.262v-111.262z"></path>
	<path class="path8" d="M311.142 632.422h111.237v111.262h-111.237v-111.262z"></path>
	<path class="path9" d="M468.155 632.397h111.237v111.262h-111.237v-111.262z"></path>
	<path class="path10" d="M625.192 632.422h111.262v111.262h-111.262v-111.262z"></path>
	<path class="path11" d="M154.081 788.433h111.262v111.262h-111.262v-111.262z"></path>
	<path class="path12" d="M311.142 788.433h111.237v111.262h-111.237v-111.262z"></path>
	<path class="path13" d="M468.155 788.433h111.237v111.262h-111.237v-111.262z"></path>
</symbol>
<symbol id="icon-calendar" viewBox="0 0 900 1024">
	<title>calendar</title>
	<path class="path1" d="M624.31 205.961c0 21.424-17.374 38.798-38.81 38.798v0c-21.436 0-38.787-17.374-38.787-38.798v-167.162c-0.011-21.424 17.351-38.798 38.787-38.798v0c21.436 0 38.81 17.374 38.81 38.798v167.162z"></path>
	<path class="path2" d="M269.904 205.961c0 21.424-17.374 38.798-38.81 38.798v0c-21.424 0-38.798-17.374-38.798-38.798v-167.162c0-21.424 17.374-38.798 38.798-38.798v0c21.436 0 38.81 17.374 38.81 38.798v167.162z"></path>
	<path class="path3" d="M285.286 436.85h102.025v102.013h-102.025v-102.013z"></path>
	<path class="path4" d="M429.295 436.838h102.025v102.025h-102.025v-102.025z"></path>
	<path class="path5" d="M573.303 436.85h102.013v102.013h-102.013v-102.013z"></path>
	<path class="path6" d="M141.301 579.903h102.013v102.013h-102.013v-102.013z"></path>
	<path class="path7" d="M285.286 579.903h102.025v102.013h-102.025v-102.013z"></path>
	<path class="path8" d="M429.295 579.903h102.025v102.025h-102.025v-102.025z"></path>
	<path class="path9" d="M141.301 722.967h102.013v102.013h-102.013v-102.013z"></path>
	<path class="path10" d="M285.286 722.967h102.025v102.013h-102.025v-102.013z"></path>
	<path class="path11" d="M429.295 722.967v102.025h51.075c0-36.818 9.079-71.498 25.020-102.025h-76.095z"></path>
	<path class="path12" d="M675.305 605.946v-26.044h-102.013v65.252c29.457-20.946 64.273-34.839 102.013-39.208z"></path>
	<path class="path13" d="M486.172 875.19h-380.018c-23.393 0-42.359-18.967-42.359-42.359v-446.191h689.004v223.972c22.869 5.518 44.339 14.564 63.795 26.578v-464.612c0-27.728-22.471-50.199-50.199-50.199h-122.015v83.581c0 32.472-26.419 58.88-58.891 58.88s-58.869-26.419-58.869-58.88v-83.581h-236.635v83.581c0 32.472-26.419 58.88-58.891 58.88-32.461 0-58.88-26.419-58.88-58.88v-83.581h-122.015c-27.728 0-50.199 22.482-50.199 50.199v716.208c0 27.728 22.471 50.199 50.199 50.199h461.892c-11.799-19.49-20.605-40.971-25.919-63.795z"></path>
	<path class="path14" d="M700.939 625.971c-109.909 0-199.020 89.099-199.020 199.009s89.111 199.020 199.020 199.020c109.909 0 198.997-89.099 198.997-199.009s-89.088-199.020-198.997-199.020zM700.939 980.287c-85.777 0-155.307-69.53-155.307-155.307s69.541-155.307 155.307-155.307c85.777 0 155.284 69.53 155.284 155.307s-69.507 155.307-155.284 155.307z"></path>
	<path class="path15" d="M747.964 794.021h57.435c8.42 0 15.246 6.827 15.246 15.246v32.848c0 8.42-6.827 15.246-15.246 15.246h-57.435c-8.42 0-15.246 6.827-15.246 15.246v54.83c0 8.42-6.827 15.246-15.246 15.246h-33.087c-8.42 0-15.246-6.827-15.246-15.246v-54.83c0-8.42-6.827-15.246-15.246-15.246h-57.435c-8.42 0-15.246-6.827-15.246-15.246v-32.848c0-8.42 6.827-15.246 15.246-15.246h57.435c8.42 0 15.246-6.827 15.246-15.246v-56.252c0-8.42 6.827-15.246 15.246-15.246h33.087c8.42 0 15.246 6.827 15.246 15.246v56.252c0 8.42 6.827 15.246 15.246 15.246z"></path>
</symbol>
<symbol id="icon-exposure" viewBox="0 0 1035 1024">
	<title>exposure</title>
	<path class="path1" d="M562.699 466.079l0.011 99.556c-14.848-2.833-30.162-4.324-45.83-4.324-13.972 0-27.671 1.195-41.006 3.447l-0.011-98.679-91.5-68.050c18.057-16.691 33.587-36.068 45.943-57.503l88.974 66.173 86.221-64.125c12.561 21.311 28.285 40.562 46.501 57.094l-89.304 66.412zM516.881 616.505c-104.073 0-188.416 84.343-188.416 188.416s84.343 188.416 188.416 188.416c104.061 0 188.405-84.343 188.405-188.416s-84.343-188.416-188.405-188.416v0zM815.525 30.674c-104.061 0-188.416 84.343-188.416 188.416 0 104.061 84.343 188.416 188.416 188.416s188.416-84.343 188.416-188.416c0-104.073-84.343-188.416-188.416-188.416v0zM219.079 30.674c-104.061 0-188.416 84.343-188.416 188.416 0 104.061 84.343 188.416 188.416 188.416s188.416-84.343 188.416-188.416c0-104.073-84.343-188.416-188.416-188.416v0zM516.881 585.842c120.991 0 219.079 98.088 219.079 219.079 0 121.003-98.088 219.079-219.079 219.079-121.003 0-219.079-98.076-219.079-219.079 0-120.991 98.076-219.079 219.079-219.079v0zM815.525 0c120.991 0 219.079 98.088 219.079 219.079s-98.088 219.079-219.079 219.079c-120.991 0-219.079-98.076-219.079-219.079 0-120.991 98.088-219.079 219.079-219.079v0zM219.079 0c121.003 0 219.090 98.088 219.090 219.079s-98.088 219.079-219.079 219.079-219.090-98.076-219.090-219.079c0-120.991 98.088-219.079 219.079-219.079v0z"></path>
	<path class="path2" d="M370.847 907.048v0c31.437 40.789 85.14 67.664 146.102 67.652 62.362 0 117.123-28.114 148.218-70.474-11.23-14.791-25.27-28.399-42.701-40.3-15.713-10.741-33.075-19.331-51.473-26.078-10.16 23.097-26.533 43.213-51.94 58.994-25.407-17.306-43.793-36.659-51.962-58.982-19.001 6.986-36.932 15.94-53.032 27.159-17.783 12.39-31.972 26.601-43.213 42.030zM498.847 648.329v0c15.861-4.016 25.941-0.58 37.979 5.507 12.334-4.688 28.114 5.074 35.703 11.81 7.498 6.667 12.095 15.053 15.963 25.213 3.038 7.942 4.312 16.168 4.847 24.337 2.753 42.564-5.495 73.808 22.391 117.999-13.551-9.421-28.126-17.26-43.361-23.666l-3.868-1.627c-2.776 2.981-7.259 8.135-10.98 9.99-1.308 0.66-4.324-7.589-5.109-12.72 0 0-0.25 0.216-0.296 0.262-5.473 4.699-11.423 8.818-17.488 12.186-10.536 6.19-20.708 6.19-31.243 0-6.064-3.368-12.026-7.487-17.488-12.186-0.046-0.046-0.296-0.262-0.296-0.262-0.796 5.131-3.812 13.38-5.12 12.72-3.721-1.855-8.192-7.009-10.968-9.99l-3.868 1.627c-15.235 6.406-29.81 14.245-43.349 23.666 26.305-41.051 19.627-75.446 22.38-117.999 0.535-8.181 1.809-16.395 4.847-24.337 8.841-23.199 28.092-37.16 49.323-42.53zM471.336 751.673c0.887 10.98 3.527 21.515 7.293 28.638 6.064 11.469 15.963 20.571 30.288 28.353 6.77 3.982 13.369 3.982 20.139 0 14.336-7.782 24.223-16.885 30.299-28.353 2.48-4.688 4.471-10.877 5.803-17.692 0.159-0.808 0.444-0.887 1.229-0.933 4.096 0 8.465-9.944 9.739-22.221 1.286-12.277-1.013-22.221-5.12-22.221-1.741 0-3.527 1.775-5.097 4.767-1.479 2.822-2.924 4.87-4.972 2.378-2.776-3.391-3.732-9.546-5.348-14.268-2.981-8.647-6.667-7.441-11.355-4.085-36.602 26.158-76.163 20.287-72.897 45.636v0z"></path>
	<path class="path3" d="M663.711 297.21v0c28.206 55.398 85.766 93.332 152.212 93.332 66.139 0 123.483-37.604 151.814-92.615-3.095-13.198-10.001-26.101-19.536-35.669-18.284-18.386-41.654-13.79-65.843-24.269-5.393-2.332-10.695-5.359-15.872-9.66-10.513 29.423-18.148 52.838-36.921 79.292l-4.153-48.174c1.058-0.387 1.798-1.422 1.9-2.56l1.422-16.725c0.125-1.468-1.32-2.833-2.867-2.731-6.884 1.49-13.562 1.445-20.446 0-1.547-0.102-2.992 1.229-2.867 2.731l1.434 16.725c0.102 1.161 0.831 2.173 1.9 2.56l-4.164 48.174c-18.762-26.453-26.396-49.857-36.91-79.292-5.177 4.312-10.479 7.327-15.872 9.66-24.212 10.479-47.559 5.894-65.843 24.269-9.364 9.409-16.202 22.005-19.388 34.953zM857.657 129.98v0c0.034 1.604 0.114 8.932 0.603 9.899 0.933 1.9 2.924-0.239 3.868-2.116 1.695-3.812 3.721-6.144 5.678-6.144 4.073 0 6.349 10.081 5.086 22.528-1.263 12.436-5.586 22.528-9.66 22.528-1.058-0.046-1.695 0.535-1.934 1.695-3.732 17.886-16.031 33.576-30.31 40.869-12.652 6.463-20.014 6.121-31.664-0.512-13.71-7.794-25.68-22.892-29.321-40.357-0.239-1.161-0.887-1.741-1.934-1.695-4.073 0-8.385-10.081-9.66-22.528s1.013-22.528 5.074-22.528c1.729 0 3.482 1.809 5.052 4.824 0.683 1.331 1.274 2.617 2.514 3.527 0.978 0.728 1.98 0.546 2.31-2.753 0.046-0.569 0.114-1.434 0.182-2.48 0.307-4.38 0.501-10.263 1.604-14.473 0.421-1.582 1.035-3.129 1.934-4.187 1.684-2.002 3.527-1.445 5.507-0.558 11.31 5.052 58.857 13.915 69.439 10.82 3.891-1.138 5.53-1.092 5.632 3.641zM787.479 73.682c-15.303 0.478-24.189 9.808-29.002 21.163-3.959 9.364-5.484 21.538-4.847 31.972-5.336 7.27-5.382 20.685-4.597 28.365 0.887 8.795 4.13 24.394 12.732 29.582 4.153 17.021 17.806 32.882 33.781 42.542 12.254 7.407 26.123 8.044 39.049 0.74 16.589-9.364 30.663-25.828 34.93-43.27 8.613-5.188 11.844-20.799 12.732-29.582 0.785-7.669 0.74-21.094-4.585-28.365 0.956-15.69-1.559-35.328-13.699-46.444-19.342-17.704-56.354-21.538-72.090-8.385-1.82 1.343-1.809 1.673-4.403 1.684v0z"></path>
	<path class="path4" d="M194.298 55.25v0c17.271-4.38 28.24-0.626 41.29 5.973 13.426-5.086 30.595 5.53 38.844 12.857 8.158 7.259 13.153 16.384 17.362 27.432 3.3 8.636 4.699 17.59 5.268 26.465 3.004 46.296-5.973 80.293 24.36 128.375-14.723-10.251-30.583-18.773-47.161-25.748l-4.198-1.775c-3.015 3.243-7.896 8.852-11.935 10.866-1.434 0.717-4.71-8.26-5.564-13.835 0 0-0.284 0.239-0.33 0.284-5.939 5.109-12.425 9.591-19.024 13.255-11.457 6.736-22.517 6.736-33.985 0-6.588-3.675-13.073-8.146-19.012-13.255-0.057-0.034-0.33-0.284-0.33-0.284-0.853 5.575-4.142 14.552-5.564 13.835-4.039-2.014-8.92-7.623-11.935-10.866l-4.21 1.775c-16.577 6.963-32.438 15.497-47.161 25.748 28.626-44.658 21.356-82.079 24.348-128.375 0.58-8.875 1.968-17.818 5.268-26.465 9.637-25.236 30.583-40.414 53.669-46.262zM238.649 112.287c-8.658 11.116-30.948 20.309-57.082 22.403-4.892 0.387-9.66 0.501-14.211 0.387-6.349 19.513-3.026 48.663 4.961 63.761 6.599 12.47 17.351 22.38 32.961 30.845 7.35 4.324 14.541 4.324 21.891 0 15.599-8.465 26.362-18.375 32.961-30.845 7.964-15.053 11.298-44.078 5.018-63.59-4.961-1.593-10.217-4.574-15.121-8.818-4.904-4.255-8.772-9.182-11.378-14.143v0zM66.958 318.259c9.956-11.332 21.572-21.914 35.123-31.516 17.783-12.607 37.604-22.619 58.63-30.39 34.702 32.814 80.589 27.386 111.172 0 20.355 7.521 39.561 17.124 56.934 29.184 15.644 10.866 28.763 23.017 39.743 36.124-32.256 42.348-87.177 70.235-149.538 70.235-64.011 0.011-120.206-29.377-152.064-73.637v0z"></path>
</symbol>
<symbol id="icon-gender" viewBox="0 0 1022 1024">
	<title>gender</title>
	<path class="path1" d="M8.205 578.957l136.474-228.416c5.005-8.371 11.571-14.95 18.598-19.251 10.47-10.010 25.6-16.307 42.432-16.307h142.899c16.832 0 31.962 6.298 42.432 16.307 7.027 4.301 13.594 10.867 18.598 19.251l136.474 228.416c9.818 16.435 10.688 34.88 3.341 46.323-3.827 7.885-10.074 14.912-18.394 19.878-8.32 4.979-17.472 7.142-26.227 6.784-13.555 1.050-29.389-8.461-39.206-24.896l-58.534-97.971 66.048 226.56c14.016 24.282 2.547 44.147-25.485 44.147h-41.818v166.438c0 22.515-11.341 41.677-27.162 48.794-9.536 5.645-21.197 8.986-33.805 8.986s-24.269-3.341-33.805-8.986c-15.821-7.117-27.162-26.278-27.162-48.794v-166.438h-13.517v166.438c0 22.515-11.341 41.677-27.162 48.794-9.523 5.645-21.184 8.986-33.792 8.986s-24.269-3.341-33.792-8.986c-15.821-7.117-27.162-26.278-27.162-48.794v-166.438h-41.818c-28.045 0-39.514-19.866-25.485-44.147l67.302-219.238v-9.434l-59.789 100.070c-9.818 16.435-25.651 25.946-39.206 24.896-8.755 0.358-17.907-1.805-26.227-6.784-8.32-4.966-14.566-12.006-18.394-19.878-7.347-11.43-6.477-29.875 3.341-46.31z"></path>
	<path class="path2" d="M310.080 62.707c-0.486 6.963-2.406 13.235-5.811 18.47-6.259 9.638-16.87 14.95-29.875 14.95v0c-1.331 0-2.714-0.051-4.083-0.166l-52.454-4.198-31.962 41.779c-8.499 11.11-17.843 14.72-25.126 15.552-2.291 9.267-3.533 18.944-3.533 28.928 0 66.227 53.683 119.923 119.923 119.923s119.923-53.683 119.923-119.923c-0.013-54.822-36.787-101.005-87.002-115.315z"></path>
	<path class="path3" d="M274.381 78.861v0c7.168 0 12.352-2.381 15.411-7.091 4.992-7.693 4.109-20.992-2.381-35.558l-3.93-8.819c-7.526-16.896-19.136-27.392-30.285-27.392-5.504 0-10.662 2.56-15.322 7.616l-38.758 42.048-57.178 0.678c-8.141 0.102-14.093 3.021-17.715 8.666-5.632 8.781-4.915 23.168 1.907 38.477l3.93 8.819c7.078 15.885 17.472 25.754 27.149 25.754 6.72 0 11.866-4.89 15.002-8.986l37.67-49.242 61.798 4.941c0.909 0.051 1.83 0.090 2.701 0.090z"></path>
	<path class="path4" d="M683.29 271.68c7.859-5.261 17.523-5.901 27.213-1.805l34.637 14.63 34.406-15.142c8.115-3.571 16.205-3.802 23.386-0.653 4.032 1.766 7.552 4.48 10.496 7.987 31.283-21.645 51.789-57.754 51.789-98.675 0-66.227-53.696-119.923-119.923-119.923s-119.923 53.696-119.923 119.923c0 41.037 20.621 77.248 52.058 98.867 1.766-2.022 3.712-3.776 5.862-5.21z"></path>
	<path class="path5" d="M1014.259 578.957l-136.461-228.429c-5.005-8.371-11.571-14.95-18.598-19.251-9.050-8.653-21.594-14.515-35.686-15.962v0.653c0.115 16.742-5.325 29.978-14.963 36.339-7.245 4.787-16.205 5.248-25.216 1.318 0 0 0 0 0 0-0.922-0.397-1.856-0.858-2.778-1.357l-35.046-18.765-34.765 19.277c-10.842 6.003-19.392 4.531-24.653 2.227-11.661-5.094-18.701-19.264-18.842-37.901l-0.013-1.818c-14.144 1.421-26.726 7.296-35.789 15.974-7.027 4.301-13.594 10.867-18.598 19.251l-136.499 228.442c-9.818 16.435-10.688 34.88-3.341 46.323 3.827 7.885 10.074 14.912 18.394 19.878 8.32 4.979 17.472 7.142 26.227 6.784 13.555 1.050 29.389-8.461 39.206-24.896l59.789-100.070v439.258c0 22.515 11.328 41.677 27.162 48.794 9.536 5.632 21.197 8.973 33.805 8.973s24.269-3.341 33.792-8.986c15.821-7.117 27.162-26.278 27.162-48.794v-247.475h13.517v247.475c0 22.515 11.328 41.677 27.162 48.794 9.536 5.645 21.197 8.986 33.805 8.986s24.269-3.341 33.792-8.986c15.821-7.117 27.162-26.278 27.162-48.794v-439.258l59.789 100.070c9.818 16.435 25.651 25.946 39.206 24.896 8.755 0.358 17.907-1.805 26.227-6.784 8.32-4.966 14.566-12.006 18.394-19.878 7.347-11.43 6.477-29.875-3.341-46.31z"></path>
	<path class="path6" d="M680.282 317.043c0.090 13.133 4.314 23.117 11.021 26.048 4.646 2.035 9.702 0.205 13.107-1.69l40.986-22.72 41.318 22.106c0.614 0.333 1.242 0.64 1.843 0.896v0c4.966 2.176 9.28 2.086 12.813-0.256 5.786-3.814 9.19-13.299 9.101-25.357l-0.051-7.296c-0.102-13.978-4.966-24.768-12.698-28.134-3.814-1.664-8.166-1.446-12.915 0.64l-39.565 17.408-39.808-16.819c-5.67-2.394-10.675-2.176-14.886 0.64-6.554 4.378-10.406 14.554-10.317 27.226l0.051 7.309z"></path>
</symbol>
<symbol id="icon-like" viewBox="0 0 1037 1024">
	<title>like</title>
	<path class="path1" d="M1037.448 526.972c-0.013-52.158-27.337-92.437-76.966-113.419-32.965-13.941-64.879-14.602-68.407-14.628-0.065 0-0.117 0-0.156 0l-150.521-0.584c-3.009-0.13-7.029-1.050-9.324-2.049-2.607-24.056 2.684-31.227 20.399-51.133 24.588-27.596 65.657-103.641 74.022-159.974 4.163-28.063 1.024-62.273-8.637-93.837-6.277-20.541-21.073-57.954-49.694-77.718-12.89-8.922-27.311-13.629-41.692-13.629-39.293 0-69.729 34.508-76.486 67.888-1.375 6.847-2.516 13.578-3.631 20.088-6.017 35.234-11.697 68.51-55.257 123.262-27.505 34.586-41.096 44.558-55.478 55.114-14.602 10.725-31.162 22.876-56.359 54.492-17.948 22.5-34.599 49.201-52.236 77.471-21.060 33.743-42.834 68.64-66.902 96.029-8.001 9.104-13.396 13.954-16.469 16.379h-69.302c-7.21-20.023-26.273-34.404-48.656-34.404h-173.915c-28.556 0-51.782 23.343-51.782 52.041v443.587c0 28.685 23.226 52.028 51.782 52.028h173.915c22.448 0 41.55-14.446 48.721-34.547h32.744c6.406 5.771 13.655 12.060 18.376 15.445 5.991 4.305 27.726 18.428 54.155 18.428h480.39c1.128 0 2.243-0.052 3.359-0.156 1.362-0.13 2.866-0.207 4.5-0.324 11.905-0.804 31.85-2.166 51.185-11.762 17.896-8.883 40.759-27.635 48.021-66.487 4.033-21.579 1.751-39.669-3.903-54.427 16.936-13.214 31.409-33.004 36.181-61.624 4.63-27.739 0.428-50.187-7.988-67.823 19.141-15.899 33.691-40.357 37.958-74.229 3.916-31.227-2.684-59.186-18.752-80.882 14.485-16.469 26.805-41.407 26.805-78.613zM992.436 681.837c-7.755 61.728-56.035 64.672-65.23 64.672-0.973 0-1.517-0.026-1.517-0.026s46.932 16.262 36.998 75.941c-8.209 49.253-59.588 53.636-59.588 53.636s36.259 14.524 27.453 61.676c-9.026 48.267-51.833 46.646-70.469 48.345 0 0-467.902 0-480.39 0-12.514 0-25.314-6.315-32.485-11.451-6.847-4.902-25.547-22.409-25.547-22.409h-44.182v-404.242h74.346c0 0 0.013 0 0.052 0 0.778 0 11.179-0.571 36.22-29.049 46.439-52.858 82.438-127.386 120.279-174.875 46.815-58.72 53.844-36.687 111.85-109.632 58.019-72.946 57.591-116.285 66.241-159.157 3.359-16.573 19.245-38.022 39.994-38.022 6.458 0.013 13.37 2.088 20.529 7.029 30.177 20.84 49.616 88.559 42.652 135.452-6.964 46.88-44.092 117.219-64.983 140.665s-34.34 40.94-29.373 82.166c3.955 32.796 45.531 33.004 45.531 33.004l150.936 0.597c0 0 108.439 0.895 108.452 90.816 0 70.365-58.11 75.863-58.11 75.863s58.849 11.425 50.342 79.002zM192.784 910.724c17.403 0 31.525 14.109 31.525 31.525 0 17.403-14.122 31.512-31.525 31.525-17.403-0.013-31.525-14.109-31.525-31.512 0-17.416 14.122-31.538 31.525-31.538z"></path>
</symbol>
<symbol id="icon-location" viewBox="0 0 1024 1024">
	<title>location</title>
	<path class="path1" d="M240.192 265.216v0c0 25.818 8.691 58.765 18.611 81.792 37.504 87.27 75.085 174.554 112.614 261.824 37.517-87.258 75.046-174.515 112.576-261.722 9.907-23.066 18.637-56.051 18.637-81.894 0-72.461-58.765-131.213-131.226-131.213-72.448 0-131.213 58.752-131.213 131.213zM371.418 340.89c-41.779 0-75.661-33.882-75.661-75.686 0-41.792 33.882-75.661 75.661-75.661 41.792 0 75.686 33.869 75.686 75.661-0.013 41.805-33.894 75.686-75.686 75.686v0z"></path>
	<path class="path2" d="M986.957 859.034l-304.576-284.326c39.322-59.904 60.442-129.958 60.442-203.29 0-99.213-38.618-192.486-108.787-262.63-70.144-70.17-163.418-108.787-262.618-108.787-99.213 0-192.486 38.618-262.63 108.787-70.144 70.144-108.787 163.418-108.787 262.63s38.643 192.486 108.787 262.63c70.144 70.144 163.418 108.787 262.63 108.787 73.331 0 143.386-21.12 203.29-60.454l284.339 304.563c43.008 43.008 106.214 49.523 141.184 14.554l1.28-1.28c34.97-34.957 28.454-98.176-14.554-141.184zM156.685 586.15c-118.4-118.4-118.4-311.066 0-429.466s311.066-118.4 429.466 0c118.4 118.4 118.4 311.066 0 429.466s-311.066 118.4-429.466 0z"></path>
</symbol>
<symbol id="icon-phone" viewBox="0 0 1024 1024">
	<title>phone</title>
	<path class="path1" d="M512 0c-282.752 0-512 229.248-512 512s229.248 512 512 512c282.752 0 512-229.248 512-512s-229.248-512-512-512zM647.339 823.296c-43.563-3.285-327.595-71.509-447.189-409.344-24.235-70.827 5.717-185.088 86.741-210.603 82.219-26.581 124.288 88.32 136.277 160.939l-71.723 71.637c0 0-2.048 44.8 96.128 142.933 98.048 98.091 142.891 96.085 142.891 96.085l83.328-83.243c52.651 11.093 158.208 78.165 158.208 78.165-13.099 99.072-80.256 164.48-184.661 153.429z"></path>
</symbol>
</defs>
</svg>
